<svg xmlns="http://www.w3.org/2000/svg" viewBox="0 0 200 200"><defs><style>.cls-1{fill:#2c2c2c;}</style></defs><title>Logo Conceptos</title><g id="Papelería"><path class="cls-1" d="M188.39,55.46a99,99,0,1,0-43.85,132.93A99,99,0,0,0,188.39,55.46ZM109.75,170.38C96.39,174,85.61,164,85.61,164a28.94,28.94,0,0,1-8.7-2.3c.77-2.25,9.28-3.35,10.3-3.18s.5,2.48.5,2.48c13.68,11.76,29.51,4.89,29.51,4.89S118.85,167.93,109.75,170.38ZM137,139.93c-2.16,1.9-5.88,3-10.21,3h0c-5,0-9.57-1.47-12.28-3.93a14.7,14.7,0,0,1-3.33-5.81,7.92,7.92,0,0,0-7.46,1.57c0,2.77-.45,5.39-1.59,7.1-3.81,5.71-14.79,9.22-21,9.22a11,11,0,0,1-4.36-.76c-4.2-1.86-6.61-6.22-8-10.55-3.68-.35-7.45-.6-10.87-.73,1.38,4.11,2,7.39,1.67,9.74-.51,3.3-1.64,3.92-1.64,3.92C55.9,147,55,143.86,53,138.94c-4.08,0-7.07.32-7.81,1-.46.46-3.2.56-3.67.1-.94-.94.41-5.57,1.35-6.51,1.35-1.35,3.41-1.15,15-.89,3.76.09,7.3.34,9.5.53a39.19,39.19,0,0,1-.39-4.42,2.38,2.38,0,0,1,1.15-2.09C77,121.2,88.79,120.38,95,120.38c3,0,5,.19,5.07.2a2.37,2.37,0,0,1,2.1,1.83c.2.83.65,2.85,1,5.33a12.73,12.73,0,0,1,6.22-1.16c-.4-2-.63-3.72-.72-4.43a2.41,2.41,0,0,1,1.21-2.4,45.82,45.82,0,0,1,20.68-4.67,48.53,48.53,0,0,1,7.62.6,2.39,2.39,0,0,1,1.93,1.7C140.36,118,144.63,133.24,137,139.93ZM66.23,105.19c11-9.07,26.91-4.18,26.91-4.18,2.73,3.51,2.54,8.37,2.54,8.37-21.07-10.33-29.45,1.37-29.45,1.37A8.91,8.91,0,0,1,66.23,105.19Zm45-5.5c6.83,8.58,23.6,3.12,23.6,3.12.78,2.34,0,3.32,0,3.32-6.63,4.87-18.81,4.09-21.84,2.92C110.55,106.65,111.26,99.69,111.26,99.69ZM135.5,89.31c-23.34-7.85-76.39,2.84-76.39,2.84C54.78,105.25,54,113.08,54,113.08c.23,1.86.29,11.75.9,15H50.31c-4.6-10.8-7.61-28.87-7.61-30.87,0-3.64,6.1-8.29,6.1-8.29A17,17,0,0,1,48.8,77c1.4-3.47,7.18-6,14.56-7.89C73.6,60.52,82.73,50.68,85.17,45c.45-1.05,1.61-3.27,3.72-1.88,4.09,2.68,4,9.67,4,9.67,15.29-8,18.79-17,19.54-21.46.31-1.81,2.6-2.67,3.73-2.39,14.45,3.55,18.36,24.12,8.24,30.79,10.11-1.26,14.06-5.9,16.5-9.61.54-.82,2.89-.85,3.43,0,2.59,4.21,2.31,10.78-1.16,17.5l3.29-.06,15.57.61C158.88,81.13,135.5,89.31,135.5,89.31Z"/></g></svg>