<svg xmlns="http://www.w3.org/2000/svg" xmlns:xlink="http://www.w3.org/1999/xlink" viewBox="0 0 760 170"><defs><style>.cls-1{fill:#f06;}.cls-2{fill:#60f;}.cls-3{fill:#2c2c2c;}.cls-4{fill:url(#Degradado_sin_nombre_12);}</style><linearGradient id="Degradado_sin_nombre_12" x1="12.62" y1="123.75" x2="146.84" y2="46.25" gradientUnits="userSpaceOnUse"><stop offset="0" stop-color="#f06"/><stop offset="1" stop-color="#60f"/></linearGradient></defs><title>logo-daniel-romero</title><g id="Papelería"><path class="cls-1" d="M185.58,37.53h20.71a30,30,0,0,1,13.83,3.09,22.68,22.68,0,0,1,9.37,8.66,24.51,24.51,0,0,1,3.33,12.81,24.51,24.51,0,0,1-3.33,12.81,22.77,22.77,0,0,1-9.37,8.67,30,30,0,0,1-13.83,3.09H185.58Zm20.29,43a22.67,22.67,0,0,0,10.49-2.32,16.61,16.61,0,0,0,7-6.49,18.64,18.64,0,0,0,2.46-9.65,18.67,18.67,0,0,0-2.46-9.65,16.67,16.67,0,0,0-7-6.49,22.8,22.8,0,0,0-10.49-2.32H192.6V80.55Z"/><path class="cls-1" d="M271.46,52.9q4.11,3.78,4.11,11.3V86.66h-6.39V81.74a10.59,10.59,0,0,1-4.81,4,18.37,18.37,0,0,1-7.4,1.37q-6.26,0-10-3a10.38,10.38,0,0,1-.17-15.83q3.57-3,11.37-3h10.67V63.92a8.57,8.57,0,0,0-2.53-6.67c-1.68-1.54-4.16-2.32-7.44-2.32A19.87,19.87,0,0,0,252.4,56a16.88,16.88,0,0,0-5.33,2.91l-2.81-5a20.46,20.46,0,0,1,6.88-3.54,28.76,28.76,0,0,1,8.49-1.23Q267.35,49.11,271.46,52.9Zm-6.7,27.27a9.88,9.88,0,0,0,4.07-4.88v-5.2H258.44q-8.56,0-8.56,5.76a5.21,5.21,0,0,0,2.17,4.42,9.92,9.92,0,0,0,6,1.61A12.61,12.61,0,0,0,264.76,80.17Z"/><path class="cls-1" d="M322.7,53.21q4.17,4.11,4.18,12V86.66h-6.74V66q0-5.4-2.6-8.14c-1.73-1.82-4.21-2.74-7.44-2.74q-5.48,0-8.63,3.2t-3.16,9.16V86.66h-6.74V49.46H298v5.61a13.1,13.1,0,0,1,5.51-4.42,19.22,19.22,0,0,1,7.89-1.54Q318.53,49.11,322.7,53.21Z"/><path class="cls-1" d="M343,41A4.17,4.17,0,0,1,341.69,38,4.29,4.29,0,0,1,343,34.82a4.46,4.46,0,0,1,3.27-1.29,4.54,4.54,0,0,1,3.26,1.23,4,4,0,0,1,1.3,3.05,4.31,4.31,0,0,1-1.3,3.19,4.39,4.39,0,0,1-3.26,1.3A4.52,4.52,0,0,1,343,41Zm-.1,8.42h6.74v37.2h-6.74Z"/><path class="cls-1" d="M399.45,70.3H369.27a11.67,11.67,0,0,0,4.32,7.9,14.07,14.07,0,0,0,9.16,3,13.8,13.8,0,0,0,10.74-4.49L397.21,81a16.16,16.16,0,0,1-6.29,4.49,23.64,23.64,0,0,1-18.84-.87A17.22,17.22,0,0,1,365,77.88a19.4,19.4,0,0,1-2.49-9.82A19.79,19.79,0,0,1,365,58.3a17.37,17.37,0,0,1,6.67-6.77,19,19,0,0,1,9.58-2.42,18.63,18.63,0,0,1,9.51,2.42,17,17,0,0,1,6.53,6.77,20.62,20.62,0,0,1,2.35,10A17.65,17.65,0,0,1,399.45,70.3ZM373.1,57.74a11.86,11.86,0,0,0-3.83,7.72h23.86a11.94,11.94,0,0,0-3.82-7.68,12.54,12.54,0,0,0-16.21,0Z"/><path class="cls-1" d="M412.44,34.58h6.74V86.66h-6.74Z"/><path class="cls-2" d="M488.17,86.66,478.7,73H468.24V86.66H456.87V37.53h21.26a27.31,27.31,0,0,1,11.34,2.17,16.24,16.24,0,0,1,10,15.65,16,16,0,0,1-10.1,15.52l11,15.79ZM485.29,49q-2.66-2.2-7.79-2.21h-9.26V63.92h9.26q5.13,0,7.79-2.25A7.8,7.8,0,0,0,488,55.35,7.78,7.78,0,0,0,485.29,49Z"/><path class="cls-2" d="M518.46,84.73a18.53,18.53,0,0,1-7.41-6.92,20.26,20.26,0,0,1,0-20.07,18.51,18.51,0,0,1,7.41-6.91,22.67,22.67,0,0,1,10.7-2.49,22.43,22.43,0,0,1,10.67,2.49,18.53,18.53,0,0,1,7.37,6.91,20.19,20.19,0,0,1,0,20.07,18.55,18.55,0,0,1-7.37,6.92,22.43,22.43,0,0,1-10.67,2.49A22.67,22.67,0,0,1,518.46,84.73Zm17.62-9.34a10.58,10.58,0,0,0,2.7-7.61,10.62,10.62,0,0,0-2.7-7.62,9.16,9.16,0,0,0-6.92-2.84,9.27,9.27,0,0,0-6.95,2.84,10.56,10.56,0,0,0-2.73,7.62,10.51,10.51,0,0,0,2.73,7.61,9.23,9.23,0,0,0,6.95,2.84A9.12,9.12,0,0,0,536.08,75.39Z"/><path class="cls-2" d="M620.31,52.51q4.17,4.18,4.17,12.53V86.66h-11V66.72q0-4.48-1.86-6.7a6.56,6.56,0,0,0-5.3-2.21,7.79,7.79,0,0,0-6.1,2.49Q598,62.79,598,67.71v19H587.07V66.72q0-8.91-7.16-8.91a7.73,7.73,0,0,0-6,2.49q-2.24,2.49-2.24,7.41v19h-11V48.9h10.46v4.35a13.74,13.74,0,0,1,5.16-3.65,17.38,17.38,0,0,1,6.7-1.26,16.12,16.12,0,0,1,7.23,1.58,12.78,12.78,0,0,1,5.19,4.59A15.64,15.64,0,0,1,601.28,50,18.46,18.46,0,0,1,609,48.34Q616.14,48.34,620.31,52.51Z"/><path class="cls-2" d="M675,70.87H646.45a8.91,8.91,0,0,0,3.65,5.54,12.08,12.08,0,0,0,7.16,2,14.59,14.59,0,0,0,5.23-.87,12.81,12.81,0,0,0,4.25-2.77l5.82,6.31q-5.32,6.11-15.58,6.11a24.64,24.64,0,0,1-11.3-2.49,18.24,18.24,0,0,1-7.58-6.92,19,19,0,0,1-2.67-10,19.32,19.32,0,0,1,2.63-10,18.51,18.51,0,0,1,7.23-7,21.28,21.28,0,0,1,10.29-2.49,21,21,0,0,1,10,2.38,17.37,17.37,0,0,1,7.06,6.85,20.37,20.37,0,0,1,2.56,10.35C675.23,68.06,675.16,69,675,70.87ZM649.4,58.72a9,9,0,0,0-3.09,5.76h18.6a9,9,0,0,0-3.09-5.72,9.2,9.2,0,0,0-6.17-2.14A9.45,9.45,0,0,0,649.4,58.72Z"/><path class="cls-2" d="M701.8,49.74a19.56,19.56,0,0,1,7.68-1.4v10.1c-1.21-.09-2-.14-2.45-.14a10,10,0,0,0-7.37,2.63Q697,63.57,697,68.83V86.66H686V48.9H696.5v5A12.2,12.2,0,0,1,701.8,49.74Z"/><path class="cls-2" d="M726.43,84.73a18.57,18.57,0,0,1-7.4-6.92,20.19,20.19,0,0,1,0-20.07,18.55,18.55,0,0,1,7.4-6.91,24.19,24.19,0,0,1,21.38,0,18.6,18.6,0,0,1,7.37,6.91,20.26,20.26,0,0,1,0,20.07,18.62,18.62,0,0,1-7.37,6.92,24.19,24.19,0,0,1-21.38,0Zm17.62-9.34a10.58,10.58,0,0,0,2.7-7.61,10.62,10.62,0,0,0-2.7-7.62,9.12,9.12,0,0,0-6.91-2.84,9.24,9.24,0,0,0-6.95,2.84,10.52,10.52,0,0,0-2.74,7.62,10.48,10.48,0,0,0,2.74,7.61,9.2,9.2,0,0,0,6.95,2.84A9.09,9.09,0,0,0,744.05,75.39Z"/><path class="cls-3" d="M226.71,104.79a5.51,5.51,0,0,0-4.54,2,8.7,8.7,0,0,0-1.66,5.65,8.83,8.83,0,0,0,1.59,5.71,5.64,5.64,0,0,0,4.61,1.93,11.74,11.74,0,0,0,2.53-.26c.81-.17,1.66-.39,2.54-.66v2.87a15.38,15.38,0,0,1-5.47.91,8.77,8.77,0,0,1-6.92-2.72q-2.41-2.73-2.41-7.81a12.6,12.6,0,0,1,1.17-5.59,8.35,8.35,0,0,1,3.39-3.68,10.22,10.22,0,0,1,5.2-1.27,13.07,13.07,0,0,1,5.81,1.31l-1.21,2.8a17.83,17.83,0,0,0-2.19-.87A7.93,7.93,0,0,0,226.71,104.79Z"/><path class="cls-3" d="M252.16,122.71H248.3l-5.13-8.38L238,122.71H234.4l6.81-10.63-6.37-9.87h3.73l4.74,7.75,4.74-7.75h3.62l-6.41,9.93Z"/><path class="cls-3" d="M280.78,112.26q0,5.08-2.82,7.77c-1.88,1.79-4.58,2.68-8.12,2.68h-5.73v-20.5h6.34q4.89,0,7.61,2.64C279.87,106.6,280.78,109.08,280.78,112.26Zm-3.53.12q0-7.36-6.89-7.36h-2.9v14.87h2.38Q277.25,119.89,277.25,112.38Z"/><path class="cls-3" d="M292.47,123a7.5,7.5,0,0,1-5.66-2.11,8,8,0,0,1-2-5.81,8.8,8.8,0,0,1,1.89-6,6.56,6.56,0,0,1,5.21-2.18,6.37,6.37,0,0,1,4.85,1.87,7.1,7.1,0,0,1,1.78,5.13v1.78H288.17a5,5,0,0,0,1.22,3.47,4.23,4.23,0,0,0,3.24,1.22,12.1,12.1,0,0,0,2.55-.26,14,14,0,0,0,2.55-.87v2.68a9.85,9.85,0,0,1-2.44.81A14.83,14.83,0,0,1,292.47,123Zm-.6-13.57a3.32,3.32,0,0,0-2.52,1,4.76,4.76,0,0,0-1.13,2.91h7a4.35,4.35,0,0,0-.92-2.91A3.18,3.18,0,0,0,291.87,109.42Z"/><path class="cls-3" d="M313.53,118.29a4,4,0,0,1-1.66,3.49,7.9,7.9,0,0,1-4.74,1.21,11.19,11.19,0,0,1-5-.94v-2.84a12.26,12.26,0,0,0,5.09,1.26c2,0,3.05-.61,3.05-1.84a1.43,1.43,0,0,0-.34-1,3.87,3.87,0,0,0-1.11-.81,19.9,19.9,0,0,0-2.14-1,9.91,9.91,0,0,1-3.63-2.07,3.85,3.85,0,0,1-.94-2.7,3.54,3.54,0,0,1,1.6-3.09,7.66,7.66,0,0,1,4.37-1.1,12.4,12.4,0,0,1,5.18,1.11l-1.07,2.48a11.49,11.49,0,0,0-4.22-1c-1.74,0-2.61.49-2.61,1.48a1.51,1.51,0,0,0,.68,1.24,15.33,15.33,0,0,0,3,1.38,13.89,13.89,0,0,1,2.79,1.36,4,4,0,0,1,1.29,1.43A4.12,4.12,0,0,1,313.53,118.29Z"/><path class="cls-3" d="M317.76,103.09a1.83,1.83,0,0,1,.48-1.36,1.86,1.86,0,0,1,1.38-.47,1.82,1.82,0,0,1,1.35.47,1.8,1.8,0,0,1,.49,1.36,1.77,1.77,0,0,1-.49,1.33,1.83,1.83,0,0,1-1.35.48,1.87,1.87,0,0,1-1.38-.48A1.81,1.81,0,0,1,317.76,103.09Zm3.49,19.62H318V107.2h3.3Z"/><path class="cls-3" d="M339.92,107.2V109l-2.65.49a4.41,4.41,0,0,1,.6,1.21,4.73,4.73,0,0,1,.24,1.51,4.63,4.63,0,0,1-1.65,3.77,6.93,6.93,0,0,1-4.56,1.38,7.84,7.84,0,0,1-1.35-.11,1.85,1.85,0,0,0-1.06,1.54.85.85,0,0,0,.49.8,4.3,4.3,0,0,0,1.83.27h2.71a6,6,0,0,1,3.9,1.09,3.84,3.84,0,0,1,1.33,3.16,4.58,4.58,0,0,1-2.17,4.06,11.4,11.4,0,0,1-6.28,1.43,8.64,8.64,0,0,1-4.84-1.12,3.61,3.61,0,0,1-1.67-3.2,3.41,3.41,0,0,1,.9-2.4,4.87,4.87,0,0,1,2.53-1.35,2.43,2.43,0,0,1-1.08-.91,2.33,2.33,0,0,1,.06-2.78,5.43,5.43,0,0,1,1.46-1.19,4.39,4.39,0,0,1-2-1.69,5,5,0,0,1-.75-2.75,4.92,4.92,0,0,1,1.59-3.91,6.7,6.7,0,0,1,4.54-1.39,11.14,11.14,0,0,1,1.38.09,9.66,9.66,0,0,1,1.09.19Zm-12.19,17.93a1.79,1.79,0,0,0,1,1.63,5.21,5.21,0,0,0,2.7.58,8.24,8.24,0,0,0,4-.77,2.32,2.32,0,0,0,1.31-2,1.55,1.55,0,0,0-.72-1.44,5.89,5.89,0,0,0-2.68-.42h-2.5a3.5,3.5,0,0,0-2.25.66A2.2,2.2,0,0,0,327.73,125.13Zm1.42-12.91a3.15,3.15,0,0,0,.75,2.25,2.85,2.85,0,0,0,2.15.78c1.91,0,2.86-1,2.86-3a3.5,3.5,0,0,0-.7-2.34,2.7,2.7,0,0,0-2.16-.82,2.77,2.77,0,0,0-2.16.81A3.4,3.4,0,0,0,329.15,112.22Z"/><path class="cls-3" d="M357.3,122.71H354v-9.53a4.18,4.18,0,0,0-.72-2.68,2.78,2.78,0,0,0-2.29-.88,3.67,3.67,0,0,0-3.06,1.23,6.84,6.84,0,0,0-1,4.14v7.72h-3.29V107.2h2.58l.46,2h.17a4.66,4.66,0,0,1,2-1.72,6.69,6.69,0,0,1,2.86-.6q5.58,0,5.58,5.68Z"/><path class="cls-3" d="M369.53,123a7.48,7.48,0,0,1-5.66-2.11,8,8,0,0,1-2-5.81,8.8,8.8,0,0,1,1.89-6,6.54,6.54,0,0,1,5.2-2.18,6.35,6.35,0,0,1,4.85,1.87,7.1,7.1,0,0,1,1.79,5.13v1.78H365.22a5.08,5.08,0,0,0,1.22,3.47,4.26,4.26,0,0,0,3.24,1.22,12.13,12.13,0,0,0,2.56-.26,13.93,13.93,0,0,0,2.54-.87v2.68a9.72,9.72,0,0,1-2.44.81A14.8,14.8,0,0,1,369.53,123Zm-.61-13.57a3.31,3.31,0,0,0-2.51,1,4.7,4.7,0,0,0-1.13,2.91h7a4.3,4.3,0,0,0-.93-2.91A3.17,3.17,0,0,0,368.92,109.42Z"/><path class="cls-3" d="M388,106.92a8.2,8.2,0,0,1,1.64.14l-.32,3.07a6.41,6.41,0,0,0-1.46-.17,4.27,4.27,0,0,0-3.21,1.29,4.72,4.72,0,0,0-1.22,3.36v8.1h-3.3V107.2h2.58l.44,2.74h.17a6,6,0,0,1,2-2.2A4.74,4.74,0,0,1,388,106.92Z"/><path class="cls-3" d="M400.72,117.29a5.7,5.7,0,0,1,.9-3.21,9.39,9.39,0,0,1,3.24-2.71,12,12,0,0,1-1.82-2.63,5.41,5.41,0,0,1-.48-2.22,4.09,4.09,0,0,1,1.52-3.37,6.31,6.31,0,0,1,4.09-1.23,5.92,5.92,0,0,1,3.9,1.19,4,4,0,0,1,1.41,3.24,4.83,4.83,0,0,1-.94,2.9,10.36,10.36,0,0,1-3.17,2.61l4.86,4.68a12.94,12.94,0,0,0,1.89-4.4h3.39a15.39,15.39,0,0,1-3.14,6.49l4.22,4.08h-4.25l-2.09-2a10.09,10.09,0,0,1-6.63,2.31,7.66,7.66,0,0,1-5.06-1.53A5.11,5.11,0,0,1,400.72,117.29Zm7.07,2.87a6.7,6.7,0,0,0,4.39-1.5l-5.37-5.29a7.18,7.18,0,0,0-2.05,1.79,3.37,3.37,0,0,0-.56,1.9,2.85,2.85,0,0,0,1,2.24A3.83,3.83,0,0,0,407.79,120.16Zm-2.09-13.53a3.25,3.25,0,0,0,.47,1.67,9.35,9.35,0,0,0,1.31,1.66,7.71,7.71,0,0,0,2.22-1.67,2.66,2.66,0,0,0,.64-1.75,1.87,1.87,0,0,0-.61-1.46,2.37,2.37,0,0,0-1.62-.54,2.59,2.59,0,0,0-1.76.57A1.92,1.92,0,0,0,405.7,106.63Z"/><path class="cls-3" d="M435.85,122.71h-3.32v-20.5H444.1V105h-8.25v6.41h7.73v2.85h-7.73Z"/><path class="cls-3" d="M459.26,122.71l-.46-2h-.17a4.71,4.71,0,0,1-1.95,1.7,6.57,6.57,0,0,1-2.9.61,5.68,5.68,0,0,1-4.21-1.4,5.83,5.83,0,0,1-1.38-4.25V107.2h3.32v9.57a4.15,4.15,0,0,0,.73,2.67,2.78,2.78,0,0,0,2.28.89,3.62,3.62,0,0,0,3.05-1.24,6.83,6.83,0,0,0,1-4.16V107.2h3.31v15.51Z"/><path class="cls-3" d="M470.71,122.71h-3.29V100.89h3.29Z"/><path class="cls-3" d="M479.58,122.71h-3.29V100.89h3.29Z"/><path class="cls-3" d="M505.65,117.14a5.16,5.16,0,0,1-2,4.3,8.67,8.67,0,0,1-5.46,1.55,13,13,0,0,1-5.69-1.08v-3.17a15.21,15.21,0,0,0,3,1,12.76,12.76,0,0,0,2.94.38,4.63,4.63,0,0,0,2.93-.76,2.44,2.44,0,0,0,.95-2,2.54,2.54,0,0,0-.87-2,13.11,13.11,0,0,0-3.59-1.89,9.48,9.48,0,0,1-3.95-2.6,5.46,5.46,0,0,1-1.15-3.5,4.9,4.9,0,0,1,1.82-4,7.56,7.56,0,0,1,4.89-1.47,14.41,14.41,0,0,1,5.87,1.29l-1.07,2.73a12.73,12.73,0,0,0-4.88-1.15,3.75,3.75,0,0,0-2.47.71,2.32,2.32,0,0,0-.84,1.87,2.6,2.6,0,0,0,.34,1.37,3.32,3.32,0,0,0,1.1,1.07,18.5,18.5,0,0,0,2.78,1.33,14.85,14.85,0,0,1,3.31,1.76,5.07,5.07,0,0,1,1.54,1.83A5.52,5.52,0,0,1,505.65,117.14Z"/><path class="cls-3" d="M515.91,120.33a8,8,0,0,0,2.41-.38v2.48a6.64,6.64,0,0,1-1.4.4,9.61,9.61,0,0,1-1.79.16c-3.12,0-4.69-1.64-4.69-4.93V109.7h-2.11v-1.46L510.6,107l1.12-3.28h2v3.45h4.42v2.5h-4.42V118a2.31,2.31,0,0,0,.6,1.76A2.17,2.17,0,0,0,515.91,120.33Z"/><path class="cls-3" d="M532,122.71l-.66-2.16h-.11a6.29,6.29,0,0,1-2.26,1.93,7.16,7.16,0,0,1-2.91.51,4.93,4.93,0,0,1-3.57-1.23,4.6,4.6,0,0,1-1.29-3.49,4.11,4.11,0,0,1,1.78-3.62,10.28,10.28,0,0,1,5.43-1.33l2.68-.09v-.83a3.14,3.14,0,0,0-.69-2.22,2.87,2.87,0,0,0-2.16-.73,7.25,7.25,0,0,0-2.28.35,16.81,16.81,0,0,0-2.11.83l-1.06-2.36a11,11,0,0,1,2.76-1,12.64,12.64,0,0,1,2.83-.35,6.7,6.7,0,0,1,4.47,1.29,5.06,5.06,0,0,1,1.51,4.05v10.45Zm-4.91-2.24a4.06,4.06,0,0,0,2.88-1,3.62,3.62,0,0,0,1.09-2.81v-1.35l-2,.08a6.92,6.92,0,0,0-3.39.78,2.37,2.37,0,0,0-1.06,2.12,2.08,2.08,0,0,0,.62,1.61A2.64,2.64,0,0,0,527.08,120.47Z"/><path class="cls-3" d="M546.06,123a6.8,6.8,0,0,1-5.35-2A10.4,10.4,0,0,1,540.8,109a7.07,7.07,0,0,1,5.53-2.11,10.49,10.49,0,0,1,4.42.91l-1,2.65a10,10,0,0,0-3.45-.81q-4,0-4,5.34a6.38,6.38,0,0,0,1,3.92,3.47,3.47,0,0,0,2.94,1.32,8.41,8.41,0,0,0,4.16-1.1V122a6.53,6.53,0,0,1-1.88.74A11.36,11.36,0,0,1,546.06,123Z"/><path class="cls-3" d="M558.08,114.52l1.86-2.32,4.68-5h3.81l-6.25,6.66,6.64,8.85H565l-5-6.8-1.81,1.49v5.31h-3.27V100.89h3.27v10.65l-.17,3Z"/><path class="cls-3" d="M597.53,112.26q0,5.08-2.82,7.77t-8.12,2.68h-5.74v-20.5h6.34q4.89,0,7.61,2.64C596.62,106.6,597.53,109.08,597.53,112.26Zm-3.54.12q0-7.36-6.88-7.36H584.2v14.87h2.39Q594,119.89,594,112.38Z"/><path class="cls-3" d="M609.21,123a7.47,7.47,0,0,1-5.65-2.11,8,8,0,0,1-2-5.81,8.8,8.8,0,0,1,1.9-6,6.53,6.53,0,0,1,5.2-2.18,6.35,6.35,0,0,1,4.85,1.87,7.1,7.1,0,0,1,1.78,5.13v1.78H604.91a5.08,5.08,0,0,0,1.22,3.47,4.26,4.26,0,0,0,3.24,1.22,12.2,12.2,0,0,0,2.56-.26,13.93,13.93,0,0,0,2.54-.87v2.68a9.72,9.72,0,0,1-2.44.81A14.83,14.83,0,0,1,609.21,123Zm-.6-13.57a3.32,3.32,0,0,0-2.52,1,4.82,4.82,0,0,0-1.13,2.91h7a4.24,4.24,0,0,0-.92-2.91A3.17,3.17,0,0,0,608.61,109.42Z"/><path class="cls-3" d="M623.39,122.71l-5.9-15.51H621l3.16,9a17.83,17.83,0,0,1,1,3.67h.11a25.64,25.64,0,0,1,1-3.67l3.16-9h3.51L627,122.71Z"/><path class="cls-3" d="M642.86,123a7.5,7.5,0,0,1-5.66-2.11,8,8,0,0,1-2-5.81,8.8,8.8,0,0,1,1.89-6,6.54,6.54,0,0,1,5.2-2.18,6.39,6.39,0,0,1,4.86,1.87,7.14,7.14,0,0,1,1.78,5.13v1.78H638.55a5.13,5.13,0,0,0,1.22,3.47,4.26,4.26,0,0,0,3.24,1.22,12.13,12.13,0,0,0,2.56-.26,14.27,14.27,0,0,0,2.55-.87v2.68a10,10,0,0,1-2.44.81A15,15,0,0,1,642.86,123Zm-.61-13.57a3.31,3.31,0,0,0-2.51,1,4.76,4.76,0,0,0-1.13,2.91h7a4.3,4.3,0,0,0-.93-2.91A3.17,3.17,0,0,0,642.25,109.42Z"/><path class="cls-3" d="M656.79,122.71H653.5V100.89h3.29Z"/><path class="cls-3" d="M676.12,114.93a8.46,8.46,0,0,1-2,5.93,7,7,0,0,1-5.42,2.13,7.43,7.43,0,0,1-3.85-1,6.38,6.38,0,0,1-2.56-2.82,9.54,9.54,0,0,1-.9-4.26,8.41,8.41,0,0,1,1.93-5.89,7,7,0,0,1,5.46-2.12,6.86,6.86,0,0,1,5.33,2.17A8.35,8.35,0,0,1,676.12,114.93Zm-11.29,0c0,3.58,1.33,5.37,4,5.37s3.93-1.79,3.93-5.37-1.32-5.31-4-5.31a3.35,3.35,0,0,0-3,1.37A6.91,6.91,0,0,0,664.83,114.93Z"/><path class="cls-3" d="M688.64,123a5.43,5.43,0,0,1-4.57-2.11h-.2c.13,1.3.2,2.1.2,2.38v6.35h-3.3V107.2h2.67c.07.29.23,1,.46,2.08h.17a5.16,5.16,0,0,1,4.62-2.36,5.38,5.38,0,0,1,4.53,2.11,11.52,11.52,0,0,1,0,11.83A5.44,5.44,0,0,1,688.64,123Zm-.8-13.37a3.42,3.42,0,0,0-2.87,1.15,6,6,0,0,0-.9,3.67v.49A7.33,7.33,0,0,0,685,119a3.34,3.34,0,0,0,2.94,1.27,3,3,0,0,0,2.63-1.4,7.24,7.24,0,0,0,.93-4,7,7,0,0,0-.92-3.94A3,3,0,0,0,687.84,109.62Z"/><path class="cls-3" d="M706.3,123a7.5,7.5,0,0,1-5.66-2.11,8,8,0,0,1-2-5.81,8.75,8.75,0,0,1,1.9-6,6.53,6.53,0,0,1,5.2-2.18,6.37,6.37,0,0,1,4.85,1.87,7.1,7.1,0,0,1,1.78,5.13v1.78H702a5,5,0,0,0,1.22,3.47,4.23,4.23,0,0,0,3.24,1.22,12.2,12.2,0,0,0,2.56-.26,14.19,14.19,0,0,0,2.54-.87v2.68a9.85,9.85,0,0,1-2.44.81A14.83,14.83,0,0,1,706.3,123Zm-.6-13.57a3.32,3.32,0,0,0-2.52,1,4.76,4.76,0,0,0-1.13,2.91h7a4.29,4.29,0,0,0-.92-2.91A3.17,3.17,0,0,0,705.7,109.42Z"/><path class="cls-3" d="M724.81,106.92a8.2,8.2,0,0,1,1.64.14l-.33,3.07a6.26,6.26,0,0,0-1.45-.17,4.27,4.27,0,0,0-3.21,1.29,4.68,4.68,0,0,0-1.23,3.36v8.1h-3.29V107.2h2.58l.43,2.74h.17a6.13,6.13,0,0,1,2-2.2A4.69,4.69,0,0,1,724.81,106.92Z"/><path class="cls-4" d="M148.93,50.13A77.49,77.49,0,1,0,114.6,154.19,77.49,77.49,0,0,0,148.93,50.13Zm-61.57,90c-10.46,2.81-18.9-5-18.9-5a22.81,22.81,0,0,1-6.81-1.81c.61-1.76,7.27-2.62,8.06-2.49s.39,1.94.39,1.94c10.71,9.21,23.11,3.83,23.11,3.83S94.48,138.18,87.36,140.09Zm21.37-23.83c-1.69,1.49-4.61,2.34-8,2.34h0c-3.9,0-7.49-1.15-9.61-3.08A11.47,11.47,0,0,1,88.51,111a6.22,6.22,0,0,0-5.84,1.23,10.53,10.53,0,0,1-1.25,5.56C78.44,122.23,69.84,125,65,125a8.4,8.4,0,0,1-3.41-.6c-3.29-1.45-5.18-4.87-6.26-8.25-2.89-.28-5.84-.48-8.52-.57,1.09,3.21,1.59,5.78,1.31,7.62-.4,2.59-1.28,3.07-1.28,3.07-1.63-4.45-2.35-6.91-3.87-10.76-3.2,0-5.54.24-6.12.75a3.9,3.9,0,0,1-2.87.08c-.74-.73.32-4.36,1.05-5.09,1.06-1.06,2.68-.91,11.71-.7,2.94.07,5.71.27,7.44.41a30.15,30.15,0,0,1-.31-3.46,1.87,1.87,0,0,1,.9-1.63c7-4.26,16.19-4.89,21.09-4.89,2.37,0,3.9.14,4,.15a1.87,1.87,0,0,1,1.65,1.43c.15.65.51,2.23.79,4.17a9.93,9.93,0,0,1,4.88-.9c-.32-1.61-.5-2.91-.57-3.47a1.89,1.89,0,0,1,1-1.88A35.8,35.8,0,0,1,103.7,96.8a38.54,38.54,0,0,1,6,.47,1.89,1.89,0,0,1,1.51,1.34C111.32,99.11,114.67,111,108.73,116.26ZM53.29,89.07c8.62-7.11,21.07-3.28,21.07-3.28a11.2,11.2,0,0,1,2,6.56c-16.49-8.1-23.05,1.07-23.05,1.07A6.94,6.94,0,0,1,53.29,89.07Zm35.25-4.31C93.89,91.48,107,87.2,107,87.2c.61,1.83,0,2.6,0,2.6-5.19,3.81-14.72,3.2-17.1,2.29C88,90.2,88.54,84.76,88.54,84.76Zm19-8.13c-18.28-6.14-59.8,2.22-59.8,2.22a86.83,86.83,0,0,0-4,16.39c.18,1.46.23,9.2.7,11.76H40.83c-3.61-8.45-6-22.59-6-24.16,0-2.85,4.78-6.49,4.78-6.49a13.36,13.36,0,0,1,0-9.33c1.1-2.72,5.63-4.72,11.4-6.18,8-6.75,15.17-14.45,17.08-18.93.35-.82,1.26-2.56,2.91-1.47,3.2,2.1,3.11,7.57,3.11,7.57,12-6.24,14.71-13.27,15.3-16.8a2.62,2.62,0,0,1,2.91-1.87c11.32,2.78,14.38,18.88,6.46,24.1,7.91-1,11-4.62,12.91-7.52a2.06,2.06,0,0,1,2.69,0c2,3.3,1.81,8.45-.91,13.7l2.58,0,12.18.48C125.83,70.23,107.52,76.63,107.52,76.63Z"/></g></svg>