<svg xmlns="http://www.w3.org/2000/svg" xmlns:xlink="http://www.w3.org/1999/xlink" viewBox="0 0 200 45"><defs><style>.cls-1{fill:#306;}.cls-2{fill:#ff0063;}.cls-3{fill:url(#Degradado_sin_nombre_14);}</style><linearGradient id="Degradado_sin_nombre_14" x1="2.51" y1="22.5" x2="42.51" y2="22.5" gradientUnits="userSpaceOnUse"><stop offset="0" stop-color="#ff0063"/><stop offset="1" stop-color="#60f"/></linearGradient></defs><title>Logo Conceptos</title><g id="Papelería"><path class="cls-1" d="M64.1,30.63a3,3,0,0,1-.84,2.3,3.33,3.33,0,0,1-2.41.8H59.14V27.64H61a3.12,3.12,0,0,1,2.26.78A2.93,2.93,0,0,1,64.1,30.63Zm-1,0c0-1.46-.68-2.19-2-2.19h-.86v4.42h.71A2,2,0,0,0,63.05,30.66Z"/><path class="cls-1" d="M65.24,27.9a.52.52,0,0,1,.15-.4.53.53,0,0,1,.41-.15.5.5,0,0,1,.54.55.49.49,0,0,1-.14.39.52.52,0,0,1-.4.15.53.53,0,0,1-.41-.15A.5.5,0,0,1,65.24,27.9Zm1,5.83h-1V29.12h1Z"/><path class="cls-1" d="M70.78,32.42a1.22,1.22,0,0,1-.49,1,2.37,2.37,0,0,1-1.41.36,3.42,3.42,0,0,1-1.48-.28v-.85a3.65,3.65,0,0,0,1.51.38c.61,0,.91-.19.91-.55a.46.46,0,0,0-.1-.29,1.17,1.17,0,0,0-.33-.24,5.18,5.18,0,0,0-.64-.29,3,3,0,0,1-1.08-.61,1.21,1.21,0,0,1-.28-.81,1,1,0,0,1,.48-.91,2.25,2.25,0,0,1,1.3-.33,3.71,3.71,0,0,1,1.54.33l-.32.74a3.37,3.37,0,0,0-1.26-.31c-.51,0-.77.14-.77.44a.47.47,0,0,0,.2.37,5.07,5.07,0,0,0,.88.41,4.3,4.3,0,0,1,.83.4,1.43,1.43,0,0,1,.39.43A1.26,1.26,0,0,1,70.78,32.42Z"/><path class="cls-1" d="M73.85,33.82a2.24,2.24,0,0,1-1.68-.63,2.42,2.42,0,0,1-.61-1.73,2.62,2.62,0,0,1,.57-1.78,2.18,2.18,0,0,1,3-.09,2.14,2.14,0,0,1,.53,1.53v.53H72.57a1.53,1.53,0,0,0,.37,1,1.24,1.24,0,0,0,1,.36,3.69,3.69,0,0,0,.76-.08,4,4,0,0,0,.76-.25v.79a2.5,2.5,0,0,1-.73.24A4.13,4.13,0,0,1,73.85,33.82Zm-.18-4a1,1,0,0,0-.74.3,1.39,1.39,0,0,0-.34.86h2.09a1.31,1.31,0,0,0-.27-.87A1,1,0,0,0,73.67,29.78Z"/><path class="cls-1" d="M80.81,33.73h-1V30.9a1.27,1.27,0,0,0-.21-.8.86.86,0,0,0-.69-.26,1.06,1.06,0,0,0-.9.37,2,2,0,0,0-.29,1.23v2.29h-1V29.12h.77l.13.61h0a1.4,1.4,0,0,1,.59-.51,2,2,0,0,1,.86-.18,1.48,1.48,0,0,1,1.65,1.69Zm-1.38-5.17a1,1,0,0,1-.34-.07,3.59,3.59,0,0,1-.34-.17l-.31-.16a.66.66,0,0,0-.3-.07q-.33,0-.45.48h-.51a1.5,1.5,0,0,1,.32-.89.91.91,0,0,1,.7-.3.84.84,0,0,1,.35.07l.33.16.32.17a.65.65,0,0,0,.29.07c.22,0,.37-.16.44-.48h.53a1.49,1.49,0,0,1-.33.87A.88.88,0,0,1,79.43,28.56Z"/><path class="cls-1" d="M86.27,31.42a2.54,2.54,0,0,1-.58,1.76,2.11,2.11,0,0,1-1.62.64,2.16,2.16,0,0,1-1.14-.3,1.91,1.91,0,0,1-.76-.83,2.86,2.86,0,0,1-.27-1.27,2.47,2.47,0,0,1,.58-1.75A2.07,2.07,0,0,1,84.1,29a2,2,0,0,1,1.58.64A2.49,2.49,0,0,1,86.27,31.42Zm-3.36,0c0,1.06.39,1.6,1.18,1.6s1.17-.54,1.17-1.6-.39-1.58-1.18-1.58a1,1,0,0,0-.89.41A2,2,0,0,0,82.91,31.42Z"/><path class="cls-1" d="M95.34,33.73H94.25l-1-3.63c0-.16-.1-.39-.17-.69s-.1-.5-.12-.62c0,.18-.07.41-.13.69s-.12.5-.16.63l-1,3.62H90.55l-.79-3-.8-3h1l.87,3.55c.13.57.23,1.07.29,1.51,0-.24.08-.5.14-.79s.11-.53.16-.71l1-3.56h1l1,3.57a13.61,13.61,0,0,1,.31,1.49,10.52,10.52,0,0,1,.3-1.52l.87-3.54h1Z"/><path class="cls-1" d="M99.7,33.82A2.21,2.21,0,0,1,98,33.19a2.37,2.37,0,0,1-.61-1.73A2.67,2.67,0,0,1,98,29.68,2,2,0,0,1,99.52,29a1.88,1.88,0,0,1,1.44.55,2.14,2.14,0,0,1,.53,1.53v.53H98.42a1.47,1.47,0,0,0,.36,1,1.27,1.27,0,0,0,1,.36,3.71,3.71,0,0,0,.77-.08,3.87,3.87,0,0,0,.75-.25v.79a2.54,2.54,0,0,1-.72.24A4.28,4.28,0,0,1,99.7,33.82Zm-.18-4a1,1,0,0,0-.75.3,1.33,1.33,0,0,0-.33.86h2.09a1.31,1.31,0,0,0-.28-.87A1,1,0,0,0,99.52,29.78Z"/><path class="cls-1" d="M105,29a1.61,1.61,0,0,1,1.34.62,3.41,3.41,0,0,1,0,3.52,1.61,1.61,0,0,1-1.36.64,1.63,1.63,0,0,1-1.36-.63h-.06l-.18.54h-.74V27.25h1v1.54c0,.11,0,.28,0,.51s0,.37,0,.43h0A1.56,1.56,0,0,1,105,29Zm-.26.8a1,1,0,0,0-.85.35,2.08,2.08,0,0,0-.27,1.16v.07a2.14,2.14,0,0,0,.27,1.22,1,1,0,0,0,.87.38.88.88,0,0,0,.79-.42,2.16,2.16,0,0,0,.27-1.19C105.78,30.36,105.42,29.84,104.7,29.84Z"/><path class="cls-1" d="M109.84,32.12a1.68,1.68,0,0,1,.27-.95,2.9,2.9,0,0,1,1-.81,4,4,0,0,1-.54-.78,1.51,1.51,0,0,1-.14-.66,1.22,1.22,0,0,1,.45-1,1.84,1.84,0,0,1,1.21-.37,1.71,1.71,0,0,1,1.16.36,1.17,1.17,0,0,1,.42,1,1.43,1.43,0,0,1-.28.86,3,3,0,0,1-.94.78l1.45,1.39a4,4,0,0,0,.56-1.31h1a4.65,4.65,0,0,1-.94,1.93l1.26,1.21h-1.27l-.62-.6a2.9,2.9,0,0,1-.9.51,3,3,0,0,1-1.07.18,2.28,2.28,0,0,1-1.5-.46A1.51,1.51,0,0,1,109.84,32.12Zm2.1.85a2,2,0,0,0,1.31-.44L111.65,31a2.09,2.09,0,0,0-.61.53,1,1,0,0,0-.17.56.87.87,0,0,0,.29.67A1.16,1.16,0,0,0,111.94,33Zm-.62-4a1,1,0,0,0,.14.5,2.6,2.6,0,0,0,.39.49,2.25,2.25,0,0,0,.66-.5.75.75,0,0,0,.19-.51.57.57,0,0,0-.18-.44.68.68,0,0,0-.48-.16.8.8,0,0,0-.53.17A.59.59,0,0,0,111.32,29Z"/><path class="cls-1" d="M121.42,33.73l-1.77-5.09h0c0,.76.07,1.47.07,2.13v3h-.91V27.64h1.41l1.69,4.85h0l1.75-4.85h1.41v6.09h-1v-3c0-.3,0-.7,0-1.19s0-.78,0-.88h0l-1.83,5.08Z"/><path class="cls-1" d="M129.44,33.73l-.19-.64h0a1.81,1.81,0,0,1-.67.57,2,2,0,0,1-.87.16,1.5,1.5,0,0,1-1.06-.37,1.4,1.4,0,0,1-.38-1,1.22,1.22,0,0,1,.53-1.07,2.94,2.94,0,0,1,1.61-.4l.8,0v-.24A.9.9,0,0,0,129,30a.81.81,0,0,0-.64-.22,2.13,2.13,0,0,0-.67.1,4.35,4.35,0,0,0-.63.25l-.32-.7a3.64,3.64,0,0,1,.82-.3,3.71,3.71,0,0,1,.85-.1,2,2,0,0,1,1.32.38,1.51,1.51,0,0,1,.45,1.21v3.1ZM128,33.07a1.22,1.22,0,0,0,.86-.3,1.11,1.11,0,0,0,.32-.84v-.4l-.59,0a2,2,0,0,0-1,.23.7.7,0,0,0-.31.63.65.65,0,0,0,.18.48A.8.8,0,0,0,128,33.07Z"/><path class="cls-1" d="M133.85,29a2.25,2.25,0,0,1,.49,0l-.1.91a2,2,0,0,0-.43,0,1.26,1.26,0,0,0-1,.39,1.37,1.37,0,0,0-.36,1v2.41h-1V29.12h.77l.13.81h.05a1.85,1.85,0,0,1,.59-.65A1.44,1.44,0,0,1,133.85,29Z"/><path class="cls-1" d="M136.14,31.3l.55-.69,1.39-1.49h1.13l-1.85,2,2,2.63h-1.15l-1.48-2-.54.44v1.58h-1V27.25h1v3.16l0,.89Z"/><path class="cls-1" d="M142.09,33.82a2.25,2.25,0,0,1-1.69-.63,2.41,2.41,0,0,1-.6-1.73,2.62,2.62,0,0,1,.56-1.78,1.94,1.94,0,0,1,1.55-.64,1.9,1.9,0,0,1,1.44.55,2.14,2.14,0,0,1,.53,1.53v.53h-3.07a1.47,1.47,0,0,0,.36,1,1.27,1.27,0,0,0,1,.36,3.62,3.62,0,0,0,.76-.08,3.74,3.74,0,0,0,.76-.25v.79a2.5,2.5,0,0,1-.73.24A4.1,4.1,0,0,1,142.09,33.82Zm-.18-4a1,1,0,0,0-.75.3,1.39,1.39,0,0,0-.34.86h2.09a1.26,1.26,0,0,0-.27-.87A1,1,0,0,0,141.91,29.78Z"/><path class="cls-1" d="M146.71,33a2.25,2.25,0,0,0,.72-.11v.74a1.77,1.77,0,0,1-.42.12,3.1,3.1,0,0,1-.54,0c-.92,0-1.39-.49-1.39-1.47V29.86h-.63v-.43l.68-.36.33-1h.61v1h1.31v.74h-1.31v2.47a.71.71,0,0,0,.17.52A.63.63,0,0,0,146.71,33Z"/><path class="cls-1" d="M148.29,27.9a.56.56,0,0,1,.14-.4.54.54,0,0,1,.41-.15.52.52,0,0,1,.55.55.5.5,0,0,1-.15.39.52.52,0,0,1-.4.15.54.54,0,0,1-.41-.15A.53.53,0,0,1,148.29,27.9Zm1,5.83h-1V29.12h1Z"/><path class="cls-1" d="M154.78,33.73h-1V30.9a1.21,1.21,0,0,0-.22-.8.84.84,0,0,0-.68-.26,1.09,1.09,0,0,0-.91.37,2,2,0,0,0-.28,1.23v2.29h-1V29.12h.76l.14.61h.05a1.4,1.4,0,0,1,.59-.51,2,2,0,0,1,.85-.18,1.48,1.48,0,0,1,1.66,1.69Z"/><path class="cls-1" d="M160,29.12v.54l-.79.15a1.27,1.27,0,0,1,.18.35,1.41,1.41,0,0,1,.07.45,1.39,1.39,0,0,1-.49,1.13,2.07,2.07,0,0,1-1.35.4,2.54,2.54,0,0,1-.41,0,.54.54,0,0,0-.31.46.27.27,0,0,0,.15.24,1.29,1.29,0,0,0,.54.08h.8a1.76,1.76,0,0,1,1.16.32,1.14,1.14,0,0,1,.4.94,1.38,1.38,0,0,1-.65,1.21,3.42,3.42,0,0,1-1.86.42,2.6,2.6,0,0,1-1.44-.33,1.08,1.08,0,0,1-.5-1,1,1,0,0,1,.27-.72,1.5,1.5,0,0,1,.75-.4.64.64,0,0,1-.32-.27.7.7,0,0,1-.13-.39.64.64,0,0,1,.15-.43,1.81,1.81,0,0,1,.43-.36,1.27,1.27,0,0,1-.58-.5,1.46,1.46,0,0,1-.22-.82,1.48,1.48,0,0,1,.47-1.16,2,2,0,0,1,1.35-.41l.41,0a1.65,1.65,0,0,1,.32.05Zm-3.62,5.33a.55.55,0,0,0,.28.49,1.63,1.63,0,0,0,.81.17,2.45,2.45,0,0,0,1.19-.23.69.69,0,0,0,.39-.61.46.46,0,0,0-.22-.43,1.76,1.76,0,0,0-.79-.12h-.75a1,1,0,0,0-.66.19A.65.65,0,0,0,156.42,34.45Zm.42-3.84a.92.92,0,0,0,.22.67.82.82,0,0,0,.64.23c.57,0,.85-.3.85-.9a1,1,0,0,0-.21-.7.8.8,0,0,0-.64-.24.82.82,0,0,0-.64.24A1,1,0,0,0,156.84,30.61Z"/><path class="cls-1" d="M168.17,30.63a3,3,0,0,1-.84,2.3,3.31,3.31,0,0,1-2.41.8h-1.7V27.64h1.88a3.12,3.12,0,0,1,2.26.78A2.93,2.93,0,0,1,168.17,30.63Zm-1,0q0-2.19-2-2.19h-.87v4.42h.71A2,2,0,0,0,167.12,30.66Z"/><path class="cls-1" d="M169.32,27.9a.5.5,0,0,1,.55-.55.54.54,0,0,1,.41.15.56.56,0,0,1,.14.4.53.53,0,0,1-.14.39.54.54,0,0,1-.41.15.56.56,0,0,1-.41-.15A.53.53,0,0,1,169.32,27.9Zm1,5.83h-1V29.12h1Z"/><path class="cls-1" d="M175.65,29.12v.54l-.79.15a.89.89,0,0,1,.18.35,1.41,1.41,0,0,1,.07.45,1.39,1.39,0,0,1-.49,1.13,2.07,2.07,0,0,1-1.35.4,2.41,2.41,0,0,1-.4,0,.55.55,0,0,0-.32.46.27.27,0,0,0,.15.24,1.32,1.32,0,0,0,.54.08h.81a1.8,1.8,0,0,1,1.16.32,1.16,1.16,0,0,1,.39.94,1.37,1.37,0,0,1-.64,1.21,3.48,3.48,0,0,1-1.87.42,2.6,2.6,0,0,1-1.44-.33,1.08,1.08,0,0,1-.5-1,1,1,0,0,1,.27-.72,1.5,1.5,0,0,1,.75-.4.69.69,0,0,1-.32-.27.7.7,0,0,1-.13-.39.64.64,0,0,1,.15-.43,1.81,1.81,0,0,1,.43-.36,1.27,1.27,0,0,1-.58-.5,1.46,1.46,0,0,1-.22-.82,1.48,1.48,0,0,1,.47-1.16,2,2,0,0,1,1.35-.41l.41,0a1.65,1.65,0,0,1,.32.05ZM172,34.45a.55.55,0,0,0,.28.49,1.63,1.63,0,0,0,.81.17,2.45,2.45,0,0,0,1.19-.23.69.69,0,0,0,.39-.61.47.47,0,0,0-.21-.43,1.84,1.84,0,0,0-.8-.12H173a1,1,0,0,0-.67.19A.65.65,0,0,0,172,34.45Zm.42-3.84a.92.92,0,0,0,.22.67.82.82,0,0,0,.64.23c.57,0,.85-.3.85-.9a1,1,0,0,0-.21-.7.8.8,0,0,0-.64-.24.82.82,0,0,0-.64.24A1,1,0,0,0,172.45,30.61Z"/><path class="cls-1" d="M176.45,27.9a.56.56,0,0,1,.14-.4.54.54,0,0,1,.41-.15.52.52,0,0,1,.55.55.5.5,0,0,1-.15.39.52.52,0,0,1-.4.15.54.54,0,0,1-.41-.15A.53.53,0,0,1,176.45,27.9Zm1,5.83h-1V29.12h1Z"/><path class="cls-1" d="M180.6,33a2.25,2.25,0,0,0,.72-.11v.74a1.77,1.77,0,0,1-.42.12,3.07,3.07,0,0,1-.53,0c-.93,0-1.39-.49-1.39-1.47V29.86h-.63v-.43l.67-.36.34-1h.6v1h1.31v.74H180v2.47a.67.67,0,0,0,.18.52A.61.61,0,0,0,180.6,33Z"/><path class="cls-1" d="M185.13,33.73l-.2-.64h0a2,2,0,0,1-.67.57,2,2,0,0,1-.87.16,1.48,1.48,0,0,1-1.06-.37,1.36,1.36,0,0,1-.38-1,1.2,1.2,0,0,1,.53-1.07,2.94,2.94,0,0,1,1.61-.4l.8,0v-.24a.9.9,0,0,0-.21-.66.83.83,0,0,0-.64-.22,2.2,2.2,0,0,0-.68.1,4.35,4.35,0,0,0-.63.25l-.31-.7a3.47,3.47,0,0,1,.82-.3,3.69,3.69,0,0,1,.84-.1,2,2,0,0,1,1.33.38,1.51,1.51,0,0,1,.45,1.21v3.1Zm-1.46-.66a1.19,1.19,0,0,0,.85-.3,1.08,1.08,0,0,0,.33-.84v-.4l-.59,0a1.92,1.92,0,0,0-1,.23.71.71,0,0,0-.32.63.66.66,0,0,0,.19.48A.79.79,0,0,0,183.67,33.07Z"/><path class="cls-1" d="M188.17,33.73h-1V27.25h1Z"/><path class="cls-2" d="M49.82,10.25h5.35a7.56,7.56,0,0,1,3.56.8,5.81,5.81,0,0,1,2.42,2.23A6.26,6.26,0,0,1,62,16.59a6.25,6.25,0,0,1-.86,3.3,5.83,5.83,0,0,1-2.42,2.24,7.68,7.68,0,0,1-3.56.8H49.82Zm5.24,11.1a5.88,5.88,0,0,0,2.71-.6,4.28,4.28,0,0,0,1.8-1.67,4.85,4.85,0,0,0,.63-2.49,4.85,4.85,0,0,0-.63-2.49,4.36,4.36,0,0,0-1.8-1.68,5.88,5.88,0,0,0-2.71-.6H51.63v9.53Z"/><path class="cls-2" d="M72,14.22A3.75,3.75,0,0,1,73,17.13v5.8H71.4V21.66a2.7,2.7,0,0,1-1.25,1,4.62,4.62,0,0,1-1.91.36,4,4,0,0,1-2.58-.78,2.68,2.68,0,0,1,0-4.09,4.55,4.55,0,0,1,2.93-.77H71.3v-.34a2.2,2.2,0,0,0-.65-1.72,2.73,2.73,0,0,0-1.92-.6,5,5,0,0,0-1.66.28,4.32,4.32,0,0,0-1.38.75L65,14.47a5.31,5.31,0,0,1,1.77-.92,7.48,7.48,0,0,1,2.19-.31A4.29,4.29,0,0,1,72,14.22Zm-1.73,7a2.42,2.42,0,0,0,1-1.26V18.65H68.62c-1.47,0-2.21.5-2.21,1.49A1.34,1.34,0,0,0,67,21.28a2.53,2.53,0,0,0,1.55.42A3.17,3.17,0,0,0,70.25,21.25Z"/><path class="cls-2" d="M85.21,14.3a4.18,4.18,0,0,1,1.07,3.1v5.53H84.54V17.6a2.93,2.93,0,0,0-.67-2.1A2.5,2.5,0,0,0,82,14.8a3,3,0,0,0-2.22.82A3.2,3.2,0,0,0,78.91,18v4.95H77.17v-9.6h1.67v1.45a3.28,3.28,0,0,1,1.42-1.14,4.92,4.92,0,0,1,2-.4A4,4,0,0,1,85.21,14.3Z"/><path class="cls-2" d="M90.44,11.15a1.07,1.07,0,0,1-.34-.79,1.14,1.14,0,0,1,1.18-1.14,1.16,1.16,0,0,1,.84.31,1,1,0,0,1,.34.79,1.12,1.12,0,0,1-.34.83,1.23,1.23,0,0,1-1.68,0Zm0,2.18h1.74v9.6H90.41Z"/><path class="cls-2" d="M105,18.71H97.22a3,3,0,0,0,1.12,2,3.63,3.63,0,0,0,2.36.76,3.56,3.56,0,0,0,2.77-1.15l1,1.12a4.15,4.15,0,0,1-1.62,1.16,5.77,5.77,0,0,1-2.16.4,5.61,5.61,0,0,1-2.7-.63,4.45,4.45,0,0,1-1.82-1.75,5,5,0,0,1-.65-2.53,5.07,5.07,0,0,1,.63-2.52,4.52,4.52,0,0,1,1.72-1.75,5,5,0,0,1,2.47-.62,4.89,4.89,0,0,1,2.46.62,4.42,4.42,0,0,1,1.68,1.75,5.39,5.39,0,0,1,.61,2.57A3.89,3.89,0,0,1,105,18.71Zm-6.8-3.24a3.07,3.07,0,0,0-1,2h6.16a3.1,3.1,0,0,0-1-2,3.22,3.22,0,0,0-4.18,0Z"/><path class="cls-2" d="M108.36,9.49h1.74V22.93h-1.74Z"/><path class="cls-2" d="M127.9,22.93l-2.44-3.53h-2.7v3.53h-2.93V10.25h5.48a7.12,7.12,0,0,1,2.93.56,4.53,4.53,0,0,1,1.9,6.48,4.24,4.24,0,0,1-1.93,1.56l2.85,4.08Zm-.74-9.72a3.09,3.09,0,0,0-2-.57h-2.39v4.42h2.39a3,3,0,0,0,2-.58,2,2,0,0,0,.69-1.63A2,2,0,0,0,127.16,13.21Z"/><path class="cls-2" d="M135.72,22.43a4.76,4.76,0,0,1-1.91-1.78,4.94,4.94,0,0,1-.69-2.59,4.89,4.89,0,0,1,.69-2.59,4.71,4.71,0,0,1,1.91-1.79,6.27,6.27,0,0,1,5.52,0,4.82,4.82,0,0,1,1.9,1.79,4.89,4.89,0,0,1,.69,2.59,4.94,4.94,0,0,1-.69,2.59,4.86,4.86,0,0,1-1.9,1.78,6.27,6.27,0,0,1-5.52,0ZM140.27,20a2.74,2.74,0,0,0,.69-2,2.75,2.75,0,0,0-.69-2,2.56,2.56,0,0,0-3.58,0,2.72,2.72,0,0,0-.71,2,2.71,2.71,0,0,0,.71,2,2.56,2.56,0,0,0,3.58,0Z"/><path class="cls-2" d="M162,14.12a4.36,4.36,0,0,1,1.08,3.23v5.58h-2.83V17.78a2.65,2.65,0,0,0-.48-1.73,1.68,1.68,0,0,0-1.36-.57,2,2,0,0,0-1.58.65,2.75,2.75,0,0,0-.58,1.91v4.89h-2.83V17.78c0-1.53-.61-2.3-1.84-2.3a2,2,0,0,0-1.56.65,2.75,2.75,0,0,0-.58,1.91v4.89h-2.83V13.18h2.7v1.13a3.73,3.73,0,0,1,1.33-1,4.67,4.67,0,0,1,1.73-.32,4.11,4.11,0,0,1,1.87.41,3.32,3.32,0,0,1,1.34,1.18,4.1,4.1,0,0,1,1.51-1.18,4.9,4.9,0,0,1,2-.41A3.93,3.93,0,0,1,162,14.12Z"/><path class="cls-2" d="M176.12,18.85h-7.37a2.24,2.24,0,0,0,.94,1.43,3.11,3.11,0,0,0,1.85.53,3.82,3.82,0,0,0,1.35-.23,3.35,3.35,0,0,0,1.09-.71l1.51,1.63a5.06,5.06,0,0,1-4,1.57,6.33,6.33,0,0,1-2.91-.64,4.71,4.71,0,0,1-2-1.78,4.94,4.94,0,0,1-.69-2.59,5,5,0,0,1,.68-2.59,4.87,4.87,0,0,1,1.87-1.79,5.8,5.8,0,0,1,5.24,0,4.49,4.49,0,0,1,1.82,1.77,5.29,5.29,0,0,1,.66,2.67S176.16,18.38,176.12,18.85Zm-6.61-3.13a2.31,2.31,0,0,0-.8,1.48h4.8a2.32,2.32,0,0,0-2.39-2A2.43,2.43,0,0,0,169.51,15.72Z"/><path class="cls-2" d="M183,13.4a5.07,5.07,0,0,1,2-.36v2.61c-.31,0-.52,0-.63,0a2.6,2.6,0,0,0-1.9.68,2.74,2.74,0,0,0-.69,2v4.6H179V13.18h2.7v1.29A3.18,3.18,0,0,1,183,13.4Z"/><path class="cls-2" d="M189.39,22.43a4.69,4.69,0,0,1-1.91-1.78,4.94,4.94,0,0,1-.69-2.59,4.89,4.89,0,0,1,.69-2.59,4.65,4.65,0,0,1,1.91-1.79,6.25,6.25,0,0,1,5.51,0,4.75,4.75,0,0,1,1.9,1.79,4.89,4.89,0,0,1,.69,2.59,4.94,4.94,0,0,1-.69,2.59,4.8,4.8,0,0,1-1.9,1.78,6.25,6.25,0,0,1-5.51,0ZM193.93,20a2.7,2.7,0,0,0,.7-2,2.71,2.71,0,0,0-.7-2,2.55,2.55,0,0,0-3.57,0,2.68,2.68,0,0,0-.71,2,2.67,2.67,0,0,0,.71,2,2.55,2.55,0,0,0,3.57,0Z"/><path class="cls-3" d="M40.36,13.5a20,20,0,1,0-8.85,26.86A20,20,0,0,0,40.36,13.5ZM24.48,36.72a5.66,5.66,0,0,1-4.88-1.29A6,6,0,0,1,17.84,35c.16-.45,1.88-.67,2.08-.64s.11.5.11.5a5.93,5.93,0,0,0,6,1S26.32,36.22,24.48,36.72ZM30,30.57a3.2,3.2,0,0,1-2.06.6h0a3.79,3.79,0,0,1-2.48-.79,3.16,3.16,0,0,1-.68-1.18,1.62,1.62,0,0,0-1.5.32A2.82,2.82,0,0,1,23,31c-.77,1.15-3,1.86-4.24,1.86a2,2,0,0,1-.88-.16,3.27,3.27,0,0,1-1.62-2.13c-.74-.07-1.51-.12-2.2-.14a4.6,4.6,0,0,1,.34,2c-.1.67-.33.8-.33.8-.42-1.15-.61-1.79-1-2.78a3.71,3.71,0,0,0-1.58.19,1,1,0,0,1-.74,0c-.19-.19.08-1.12.27-1.31s.69-.24,3-.18c.76,0,1.48.07,1.92.1a7.56,7.56,0,0,1-.08-.89.49.49,0,0,1,.24-.42,11,11,0,0,1,5.44-1.26c.61,0,1,0,1,0A.49.49,0,0,1,23,27c0,.17.13.57.2,1.07a2.57,2.57,0,0,1,1.26-.23c-.08-.41-.13-.75-.15-.9a.49.49,0,0,1,.25-.48,9.26,9.26,0,0,1,4.18-.94,9.76,9.76,0,0,1,1.53.12.47.47,0,0,1,.39.34C30.66,26.14,31.52,29.22,30,30.57Zm-14.3-7c2.22-1.83,5.43-.85,5.43-.85a3,3,0,0,1,.52,1.7c-4.26-2.09-6,.27-6,.27A1.77,1.77,0,0,1,15.69,23.55Zm9.09-1.11c1.38,1.73,4.77.63,4.77.63.16.47,0,.67,0,.67a6,6,0,0,1-4.41.59C24.64,23.84,24.78,22.44,24.78,22.44Zm4.9-2.1c-4.72-1.59-15.43.57-15.43.57a22,22,0,0,0-1,4.23c0,.38.06,2.38.18,3h-.92a27.38,27.38,0,0,1-1.54-6.24c0-.73,1.24-1.67,1.24-1.67a3.43,3.43,0,0,1,0-2.41c.28-.7,1.45-1.22,2.94-1.59,2.06-1.75,3.91-3.73,4.4-4.89.09-.21.33-.66.76-.38.82.54.8,1.95.8,1.95,3.08-1.61,3.79-3.42,3.94-4.33a.68.68,0,0,1,.76-.48c2.92.71,3.71,4.87,1.66,6.22a4.2,4.2,0,0,0,3.33-1.94.53.53,0,0,1,.7,0A3.72,3.72,0,0,1,31.22,16l.67,0,3.14.13C34.4,18.69,29.68,20.34,29.68,20.34Z"/></g></svg>