<?xml version="1.0" encoding="utf-8"?>
<!-- Generator: Adobe Illustrator 23.0.1, SVG Export Plug-In . SVG Version: 6.00 Build 0)  -->
<svg version="1.1" id="Capa_1" xmlns="http://www.w3.org/2000/svg" xmlns:xlink="http://www.w3.org/1999/xlink" x="0px" y="0px"
	 viewBox="0 0 760 170" style="enable-background:new 0 0 760 170;" xml:space="preserve">
<style type="text/css">
	.st0{fill:#FFFFFF;}
</style>
<g id="Papelería">
	<path class="st0" d="M185.6,37.5h20.7c4.8-0.1,9.5,1,13.8,3.1c3.9,1.9,7.1,4.9,9.4,8.7c2.3,3.9,3.4,8.3,3.3,12.8
		c0.1,4.5-1.1,8.9-3.3,12.8c-2.2,3.7-5.5,6.7-9.4,8.7c-4.3,2.1-9,3.2-13.8,3.1h-20.7V37.5z M205.9,80.5c3.6,0.1,7.2-0.7,10.5-2.3
		c2.9-1.4,5.4-3.7,7-6.5c1.7-2.9,2.5-6.3,2.5-9.7c0.1-3.4-0.8-6.7-2.5-9.7c-1.7-2.8-4.1-5.1-7-6.5c-3.3-1.6-6.9-2.4-10.5-2.3h-13.3
		v36.9L205.9,80.5z"/>
	<path class="st0" d="M271.5,52.9c2.7,2.5,4.1,6.3,4.1,11.3v22.5h-6.4v-4.9c-1.2,1.8-2.8,3.2-4.8,4c-2.3,1-4.9,1.4-7.4,1.4
		c-4.2,0-7.5-1-10-3c-4.4-3.7-5-10.2-1.4-14.6c0.4-0.4,0.8-0.8,1.2-1.2c2.4-2,6.2-3,11.4-3h10.7v-1.4c0.2-2.5-0.8-4.9-2.5-6.7
		c-1.7-1.5-4.2-2.3-7.4-2.3c-2.2,0-4.4,0.4-6.5,1.1c-1.9,0.6-3.7,1.6-5.3,2.9l-2.8-5c2-1.6,4.4-2.8,6.9-3.5c2.8-0.8,5.6-1.2,8.5-1.2
		C264.8,49.1,268.7,50.4,271.5,52.9z M264.8,80.2c1.9-1.1,3.3-2.8,4.1-4.9v-5.2h-10.4c-5.7,0-8.6,1.9-8.6,5.8
		c-0.1,1.7,0.8,3.4,2.2,4.4c1.8,1.2,3.9,1.7,6,1.6C260.4,81.9,262.7,81.4,264.8,80.2L264.8,80.2z"/>
	<path class="st0" d="M322.7,53.2c2.8,2.7,4.2,6.7,4.2,12v21.5h-6.7V66c0-3.6-0.9-6.3-2.6-8.1c-1.7-1.8-4.2-2.7-7.4-2.7
		c-3.7,0-6.5,1.1-8.6,3.2c-2.1,2.1-3.2,5.2-3.2,9.2v19.2h-6.7V49.5h6.4v5.6c1.4-2,3.3-3.5,5.5-4.4c2.5-1.1,5.2-1.6,7.9-1.5
		C316.2,49.1,319.9,50.5,322.7,53.2z"/>
	<path class="st0" d="M343,41c-0.8-0.8-1.3-1.9-1.3-3c0-1.2,0.4-2.3,1.3-3.2c0.9-0.9,2-1.3,3.3-1.3c1.2,0,2.4,0.4,3.3,1.2
		c0.9,0.8,1.3,1.9,1.3,3c0,1.2-0.4,2.4-1.3,3.2c-0.9,0.9-2,1.3-3.3,1.3C345,42.3,343.9,41.9,343,41z M342.9,49.4h6.7v37.2h-6.7V49.4
		z"/>
	<path class="st0" d="M399.5,70.3h-30.2c0.3,3.1,1.9,6,4.3,7.9c2.6,2,5.8,3.1,9.2,3c4.1,0.2,8-1.5,10.7-4.5l3.7,4.3
		c-1.7,2-3.9,3.5-6.3,4.5c-6.1,2.3-13,2-18.8-0.9c-3-1.5-5.4-3.9-7.1-6.7c-1.7-3-2.5-6.4-2.5-9.8c0-3.4,0.8-6.8,2.5-9.8
		c1.6-2.8,3.9-5.2,6.7-6.8c2.9-1.6,6.2-2.5,9.6-2.4c3.3-0.1,6.6,0.8,9.5,2.4c2.8,1.6,5,3.9,6.5,6.8c1.6,3.1,2.4,6.5,2.4,10
		C399.6,69,399.6,69.6,399.5,70.3z M373.1,57.7c-2.2,2-3.6,4.8-3.8,7.7h23.9c-0.3-2.9-1.6-5.7-3.8-7.7
		C384.6,53.8,377.8,53.8,373.1,57.7L373.1,57.7z"/>
	<path class="st0" d="M412.4,34.6h6.7v52.1h-6.7V34.6z"/>
	<path class="st0" d="M488.2,86.7L478.7,73h-10.5v13.7h-11.4V37.5h21.3c3.9-0.1,7.8,0.6,11.3,2.2c6.3,2.6,10.3,8.9,10,15.7
		c0.3,6.8-3.8,13-10.1,15.5l11,15.8L488.2,86.7z M485.3,49c-1.8-1.5-4.4-2.2-7.8-2.2h-9.3v17.1h9.3c3.4,0,6-0.8,7.8-2.3
		c1.8-1.6,2.8-3.9,2.7-6.3C488.1,52.9,487.1,50.6,485.3,49z"/>
	<path class="st0" d="M518.5,84.7c-3.1-1.6-5.6-4-7.4-6.9c-3.5-6.2-3.5-13.8,0-20.1c1.8-2.9,4.3-5.3,7.4-6.9c3.3-1.7,7-2.5,10.7-2.5
		c3.7-0.1,7.4,0.8,10.7,2.5c3,1.6,5.6,4,7.4,6.9c3.6,6.2,3.6,13.9,0,20.1c-1.8,2.9-4.3,5.3-7.4,6.9c-3.3,1.7-7,2.6-10.7,2.5
		C525.4,87.3,521.8,86.4,518.5,84.7z M536.1,75.4c1.9-2.1,2.8-4.8,2.7-7.6c0.1-2.8-0.8-5.5-2.7-7.6c-1.8-1.9-4.3-2.9-6.9-2.8
		c-2.6-0.1-5.1,1-7,2.8c-1.9,2.1-2.9,4.8-2.7,7.6c-0.1,2.8,0.8,5.5,2.7,7.6c1.8,1.9,4.3,2.9,7,2.8C531.8,78.3,534.3,77.3,536.1,75.4
		z"/>
	<path class="st0" d="M620.3,52.5c2.8,2.8,4.2,7,4.2,12.5v21.6h-11V66.7c0-3-0.6-5.2-1.9-6.7c-1.3-1.5-3.3-2.3-5.3-2.2
		c-2.3-0.1-4.5,0.8-6.1,2.5c-1.5,1.7-2.2,4.1-2.2,7.4v19h-10.9v-20c0-5.9-2.4-8.9-7.2-8.9c-2.3-0.1-4.5,0.8-6,2.5
		c-1.5,1.7-2.2,4.1-2.2,7.4v19h-11V48.9h10.5v4.3c1.4-1.6,3.2-2.9,5.2-3.7c2.1-0.9,4.4-1.3,6.7-1.3c2.5,0,5,0.5,7.2,1.6
		c2.1,1,3.9,2.6,5.2,4.6c1.6-2,3.6-3.5,5.9-4.5c2.4-1.1,5.1-1.7,7.7-1.7C613.8,48.3,617.5,49.7,620.3,52.5z"/>
	<path class="st0" d="M675,70.9h-28.5c0.5,2.2,1.8,4.2,3.7,5.5c2.1,1.4,4.6,2.1,7.2,2c1.8,0,3.6-0.3,5.2-0.9c1.6-0.6,3-1.6,4.3-2.8
		l5.8,6.3c-3.5,4.1-8.7,6.1-15.6,6.1c-3.9,0.1-7.8-0.8-11.3-2.5c-3.1-1.5-5.8-3.9-7.6-6.9c-1.8-3-2.7-6.5-2.7-10c0-3.5,0.9-7,2.6-10
		c1.7-3,4.2-5.4,7.2-7c3.2-1.7,6.7-2.5,10.3-2.5c3.5,0,6.9,0.8,10,2.4c3,1.6,5.4,3.9,7.1,6.8c1.8,3.2,2.6,6.7,2.6,10.3
		C675.2,68.1,675.2,69,675,70.9z M649.4,58.7c-1.7,1.5-2.8,3.5-3.1,5.8h18.6c-0.3-2.2-1.4-4.3-3.1-5.7c-1.7-1.4-3.9-2.2-6.2-2.1
		C653.4,56.5,651.2,57.3,649.4,58.7z"/>
	<path class="st0" d="M701.8,49.7c2.4-1,5.1-1.5,7.7-1.4v10.1c-1.2-0.1-2-0.1-2.5-0.1c-2.7-0.2-5.4,0.8-7.4,2.6
		c-1.8,1.8-2.7,4.4-2.7,7.9v17.8h-11V48.9h10.5v5C697.8,52,699.7,50.6,701.8,49.7z"/>
	<path class="st0" d="M726.4,84.7c-3.1-1.6-5.6-4-7.4-6.9c-3.6-6.2-3.6-13.9,0-20.1c1.8-2.9,4.3-5.3,7.4-6.9
		c6.7-3.3,14.6-3.3,21.4,0c3,1.6,5.6,4,7.4,6.9c3.5,6.2,3.5,13.8,0,20.1c-1.8,2.9-4.3,5.3-7.4,6.9C741.1,88.1,733.2,88.1,726.4,84.7
		z M744,75.4c1.9-2.1,2.8-4.8,2.7-7.6c0.1-2.8-0.8-5.5-2.7-7.6c-1.8-1.9-4.3-2.9-6.9-2.8c-2.6-0.1-5.1,1-7,2.8
		c-1.9,2.1-2.9,4.8-2.7,7.6c-0.1,2.8,0.8,5.5,2.7,7.6c1.8,1.9,4.3,2.9,7,2.8C739.7,78.3,742.3,77.3,744,75.4z"/>
	<path class="st0" d="M226.7,104.8c-1.7-0.1-3.4,0.7-4.5,2c-1.2,1.6-1.8,3.6-1.7,5.7c-0.1,2,0.4,4,1.6,5.7c1.2,1.3,2.9,2,4.6,1.9
		c0.9,0,1.7-0.1,2.5-0.3c0.8-0.2,1.7-0.4,2.5-0.7v2.9c-1.8,0.6-3.6,0.9-5.5,0.9c-2.6,0.2-5.1-0.8-6.9-2.7c-1.6-1.8-2.4-4.4-2.4-7.8
		c0-1.9,0.4-3.8,1.2-5.6c0.7-1.5,1.9-2.8,3.4-3.7c1.6-0.9,3.4-1.3,5.2-1.3c2,0,4,0.4,5.8,1.3l-1.2,2.8c-0.7-0.3-1.4-0.6-2.2-0.9
		C228.4,104.9,227.5,104.8,226.7,104.8z"/>
	<path class="st0" d="M252.2,122.7h-3.9l-5.1-8.4l-5.2,8.4h-3.6l6.8-10.6l-6.4-9.9h3.7l4.7,7.8l4.7-7.8h3.6l-6.4,9.9L252.2,122.7z"
		/>
	<path class="st0" d="M280.8,112.3c0,3.4-0.9,6-2.8,7.8c-1.9,1.8-4.6,2.7-8.1,2.7h-5.7v-20.5h6.3c3.3,0,5.8,0.9,7.6,2.6
		C279.9,106.6,280.8,109.1,280.8,112.3z M277.3,112.4c0-4.9-2.3-7.4-6.9-7.4h-2.9v14.9h2.4C274.8,119.9,277.3,117.4,277.3,112.4z"/>
	<path class="st0" d="M292.5,123c-2.1,0.1-4.2-0.6-5.7-2.1c-1.4-1.6-2.1-3.7-2-5.8c-0.1-2.2,0.5-4.3,1.9-6c1.3-1.5,3.2-2.3,5.2-2.2
		c1.8-0.1,3.6,0.6,4.9,1.9c1.2,1.4,1.9,3.3,1.8,5.1v1.8h-10.4c0,1.3,0.4,2.5,1.2,3.5c0.9,0.9,2,1.3,3.2,1.2c0.9,0,1.7-0.1,2.5-0.3
		c0.9-0.2,1.7-0.5,2.5-0.9v2.7c-0.8,0.4-1.6,0.6-2.4,0.8C294.4,122.9,293.4,123,292.5,123z M291.9,109.4c-0.9,0-1.9,0.3-2.5,1
		c-0.7,0.8-1.1,1.8-1.1,2.9h7c0.1-1-0.3-2.1-0.9-2.9C293.7,109.8,292.8,109.4,291.9,109.4L291.9,109.4z"/>
	<path class="st0" d="M313.5,118.3c0.1,1.4-0.5,2.7-1.7,3.5c-1.4,0.9-3.1,1.3-4.7,1.2c-1.7,0.1-3.4-0.2-5-0.9v-2.8
		c1.6,0.8,3.3,1.2,5.1,1.3c2,0,3-0.6,3-1.8c0-0.4-0.1-0.7-0.3-1c-0.3-0.3-0.7-0.6-1.1-0.8c-0.7-0.4-1.4-0.7-2.1-1
		c-1.3-0.4-2.6-1.1-3.6-2.1c-0.6-0.7-1-1.7-0.9-2.7c0-1.2,0.6-2.4,1.6-3.1c1.3-0.8,2.8-1.2,4.4-1.1c1.8,0,3.6,0.4,5.2,1.1l-1.1,2.5
		c-1.3-0.6-2.8-0.9-4.2-1c-1.7,0-2.6,0.5-2.6,1.5c0,0.5,0.3,1,0.7,1.2c0.9,0.6,2,1,3,1.4c1,0.3,1.9,0.8,2.8,1.4
		c0.5,0.4,1,0.9,1.3,1.4C313.4,116.9,313.6,117.6,313.5,118.3z"/>
	<path class="st0" d="M317.8,103.1c0-0.5,0.1-1,0.5-1.4c0.4-0.3,0.9-0.5,1.4-0.5c0.5,0,1,0.1,1.4,0.5c0.3,0.4,0.5,0.9,0.5,1.4
		c0,0.5-0.1,1-0.5,1.3c-0.4,0.3-0.9,0.5-1.4,0.5c-0.5,0-1-0.1-1.4-0.5C317.9,104.1,317.7,103.6,317.8,103.1z M321.3,122.7H318v-15.5
		h3.3L321.3,122.7z"/>
	<path class="st0" d="M339.9,107.2v1.8l-2.6,0.5c0.3,0.4,0.5,0.8,0.6,1.2c0.2,0.5,0.2,1,0.2,1.5c0.1,1.4-0.5,2.8-1.6,3.8
		c-1.3,1-2.9,1.5-4.6,1.4c-0.5,0-0.9,0-1.4-0.1c-0.6,0.3-1,0.9-1.1,1.5c0,0.3,0.2,0.7,0.5,0.8c0.6,0.2,1.2,0.3,1.8,0.3h2.7
		c1.4-0.1,2.8,0.3,3.9,1.1c0.9,0.8,1.4,2,1.3,3.2c0.1,1.6-0.8,3.2-2.2,4.1c-1.9,1.1-4.1,1.6-6.3,1.4c-1.7,0.1-3.4-0.3-4.8-1.1
		c-1.1-0.7-1.7-1.9-1.7-3.2c0-0.9,0.3-1.7,0.9-2.4c0.7-0.7,1.6-1.2,2.5-1.3c-0.4-0.2-0.8-0.5-1.1-0.9c-0.6-0.8-0.6-2,0.1-2.8
		c0.4-0.5,0.9-0.9,1.5-1.2c-0.8-0.3-1.5-0.9-2-1.7c-0.5-0.8-0.8-1.8-0.8-2.8c-0.1-1.5,0.5-2.9,1.6-3.9c1.3-1,2.9-1.5,4.5-1.4
		c0.5,0,0.9,0,1.4,0.1c0.4,0,0.7,0.1,1.1,0.2L339.9,107.2z M327.7,125.1c0,0.7,0.4,1.3,1,1.6c0.8,0.4,1.8,0.6,2.7,0.6
		c1.4,0.1,2.8-0.2,4-0.8c0.8-0.4,1.3-1.1,1.3-2c0-0.6-0.2-1.1-0.7-1.4c-0.8-0.3-1.8-0.5-2.7-0.4h-2.5c-0.8,0-1.6,0.2-2.3,0.7
		C328,123.8,327.7,124.4,327.7,125.1z M329.2,112.2c-0.1,0.8,0.2,1.6,0.8,2.3c0.6,0.5,1.4,0.8,2.1,0.8c1.9,0,2.9-1,2.9-3
		c0.1-0.8-0.2-1.7-0.7-2.3c-0.6-0.6-1.4-0.9-2.2-0.8c-0.8-0.1-1.6,0.2-2.2,0.8C329.4,110.6,329.1,111.4,329.2,112.2L329.2,112.2z"/>
	<path class="st0" d="M357.3,122.7H354v-9.5c0.1-0.9-0.2-1.9-0.7-2.7c-0.6-0.6-1.4-1-2.3-0.9c-1.2-0.1-2.3,0.4-3.1,1.2
		c-0.8,1.2-1.1,2.7-1,4.1v7.7h-3.3v-15.5h2.6l0.5,2h0.2c0.5-0.8,1.2-1.4,2-1.7c0.9-0.4,1.9-0.6,2.9-0.6c3.7,0,5.6,1.9,5.6,5.7
		L357.3,122.7z"/>
	<path class="st0" d="M369.5,123c-2.1,0.1-4.2-0.6-5.7-2.1c-1.4-1.6-2.1-3.7-2-5.8c-0.1-2.2,0.5-4.3,1.9-6c1.3-1.5,3.2-2.3,5.2-2.2
		c1.8-0.1,3.6,0.6,4.9,1.9c1.3,1.4,1.9,3.3,1.8,5.1v1.8h-10.4c0,1.3,0.4,2.5,1.2,3.5c0.9,0.8,2,1.3,3.2,1.2c0.9,0,1.7-0.1,2.6-0.3
		c0.9-0.2,1.7-0.5,2.5-0.9v2.7c-0.8,0.4-1.6,0.6-2.4,0.8C371.4,122.9,370.5,123,369.5,123z M368.9,109.4c-0.9,0-1.9,0.3-2.5,1
		c-0.7,0.8-1.1,1.8-1.1,2.9h7c0.1-1.1-0.3-2.1-0.9-2.9C370.7,109.8,369.8,109.4,368.9,109.4L368.9,109.4z"/>
	<path class="st0" d="M388,106.9c0.5,0,1.1,0,1.6,0.1l-0.3,3.1c-0.5-0.1-1-0.2-1.5-0.2c-1.2,0-2.4,0.4-3.2,1.3
		c-0.8,0.9-1.3,2.1-1.2,3.4v8.1h-3.3v-15.5h2.6l0.4,2.7h0.2c0.5-0.9,1.2-1.6,2-2.2C386.1,107.2,387,106.9,388,106.9z"/>
	<path class="st0" d="M400.7,117.3c0-1.1,0.3-2.3,0.9-3.2c0.9-1.1,2-2.1,3.2-2.7c-0.7-0.8-1.3-1.7-1.8-2.6c-0.3-0.7-0.5-1.5-0.5-2.2
		c-0.1-1.3,0.5-2.6,1.5-3.4c1.2-0.9,2.6-1.3,4.1-1.2c1.4-0.1,2.8,0.3,3.9,1.2c0.9,0.8,1.5,2,1.4,3.2c0,1-0.3,2.1-0.9,2.9
		c-0.9,1.1-1.9,2-3.2,2.6l4.9,4.7c0.9-1.3,1.5-2.8,1.9-4.4h3.4c-0.5,2.4-1.6,4.6-3.1,6.5l4.2,4.1h-4.3l-2.1-2
		c-1.9,1.5-4.2,2.4-6.6,2.3c-1.8,0.1-3.6-0.4-5.1-1.5C401.3,120.5,400.6,118.9,400.7,117.3z M407.8,120.2c1.6,0,3.2-0.5,4.4-1.5
		l-5.4-5.3c-0.8,0.5-1.5,1.1-2,1.8c-0.4,0.6-0.6,1.2-0.6,1.9c0,0.9,0.3,1.7,1,2.2C405.9,119.9,406.9,120.2,407.8,120.2z
		 M405.7,106.6c0,0.6,0.2,1.2,0.5,1.7c0.4,0.6,0.8,1.2,1.3,1.7c0.8-0.4,1.6-1,2.2-1.7c0.4-0.5,0.6-1.1,0.6-1.8
		c0-0.6-0.2-1.1-0.6-1.5c-0.5-0.4-1-0.6-1.6-0.5c-0.6,0-1.3,0.2-1.8,0.6C405.9,105.5,405.7,106.1,405.7,106.6z"/>
	<path class="st0" d="M435.9,122.7h-3.3v-20.5h11.6v2.8h-8.3v6.4h7.7v2.8h-7.7V122.7z"/>
	<path class="st0" d="M459.3,122.7l-0.5-2h-0.2c-0.5,0.7-1.2,1.3-2,1.7c-0.9,0.4-1.9,0.6-2.9,0.6c-1.5,0.1-3.1-0.4-4.2-1.4
		c-1-1.2-1.5-2.7-1.4-4.3v-10.2h3.3v9.6c-0.1,0.9,0.2,1.9,0.7,2.7c0.6,0.6,1.4,1,2.3,0.9c1.2,0.1,2.3-0.4,3-1.2
		c0.8-1.2,1.1-2.7,1-4.2v-7.7h3.3v15.5H459.3z"/>
	<path class="st0" d="M470.7,122.7h-3.3v-21.8h3.3V122.7z"/>
	<path class="st0" d="M479.6,122.7h-3.3v-21.8h3.3V122.7z"/>
	<path class="st0" d="M505.6,117.1c0.1,1.7-0.7,3.3-2,4.3c-1.6,1.1-3.5,1.7-5.5,1.6c-2,0.1-3.9-0.3-5.7-1.1v-3.2c1,0.4,2,0.8,3,1
		c1,0.2,1.9,0.4,2.9,0.4c1,0.1,2.1-0.2,2.9-0.8c0.6-0.5,1-1.2,1-2c0-0.8-0.3-1.5-0.9-2c-1.1-0.8-2.3-1.5-3.6-1.9
		c-1.5-0.5-2.9-1.4-4-2.6c-0.8-1-1.2-2.2-1.1-3.5c-0.1-1.5,0.6-3,1.8-4c1.4-1,3.1-1.6,4.9-1.5c2,0,4,0.5,5.9,1.3l-1.1,2.7
		c-1.5-0.7-3.2-1.1-4.9-1.2c-0.9-0.1-1.8,0.2-2.5,0.7c-0.6,0.5-0.9,1.2-0.8,1.9c0,0.5,0.1,1,0.3,1.4c0.3,0.4,0.7,0.8,1.1,1.1
		c0.9,0.5,1.8,1,2.8,1.3c1.2,0.4,2.3,1,3.3,1.8c0.7,0.5,1.2,1.1,1.5,1.8C505.5,115.5,505.7,116.3,505.6,117.1z"/>
	<path class="st0" d="M515.9,120.3c0.8,0,1.6-0.1,2.4-0.4v2.5c-0.5,0.2-0.9,0.3-1.4,0.4c-0.6,0.1-1.2,0.2-1.8,0.2
		c-3.1,0-4.7-1.6-4.7-4.9v-8.4h-2.1v-1.5l2.3-1.2l1.1-3.3h2v3.4h4.4v2.5h-4.4v8.3c-0.1,0.6,0.2,1.3,0.6,1.8
		C514.8,120.2,515.3,120.4,515.9,120.3z"/>
	<path class="st0" d="M532,122.7l-0.7-2.2h-0.1c-0.6,0.8-1.4,1.5-2.3,1.9c-0.9,0.4-1.9,0.5-2.9,0.5c-1.3,0.1-2.6-0.4-3.6-1.2
		c-0.9-0.9-1.4-2.2-1.3-3.5c-0.1-1.4,0.6-2.8,1.8-3.6c1.7-0.9,3.5-1.4,5.4-1.3l2.7-0.1v-0.8c0.1-0.8-0.2-1.6-0.7-2.2
		c-0.6-0.5-1.4-0.8-2.2-0.7c-0.8,0-1.5,0.1-2.3,0.3c-0.7,0.2-1.4,0.5-2.1,0.8l-1.1-2.4c0.9-0.5,1.8-0.8,2.8-1
		c0.9-0.2,1.9-0.3,2.8-0.3c1.6-0.1,3.2,0.3,4.5,1.3c1.1,1.1,1.6,2.5,1.5,4.1v10.4L532,122.7z M527.1,120.5c1.1,0.1,2.1-0.3,2.9-1
		c0.8-0.7,1.2-1.8,1.1-2.8v-1.3l-2,0.1c-1.2,0-2.3,0.2-3.4,0.8c-0.7,0.5-1.1,1.3-1.1,2.1c0,0.6,0.2,1.2,0.6,1.6
		C525.8,120.3,526.4,120.5,527.1,120.5L527.1,120.5z"/>
	<path class="st0" d="M546.1,123c-2,0.2-3.9-0.6-5.3-2c-2.5-3.6-2.5-8.4,0.1-12c1.4-1.5,3.5-2.2,5.5-2.1c1.5,0,3,0.3,4.4,0.9l-1,2.7
		c-1.1-0.5-2.3-0.7-3.5-0.8c-2.7,0-4,1.8-4,5.3c-0.1,1.4,0.3,2.8,1,3.9c0.7,0.9,1.8,1.4,2.9,1.3c1.5,0,2.9-0.4,4.2-1.1v2.9
		c-0.6,0.3-1.2,0.6-1.9,0.7C547.7,122.9,546.9,123,546.1,123z"/>
	<path class="st0" d="M558.1,114.5l1.9-2.3l4.7-5h3.8l-6.3,6.7l6.6,8.8H565l-5-6.8l-1.8,1.5v5.3h-3.3v-21.8h3.3v10.7L558.1,114.5
		L558.1,114.5z"/>
	<path class="st0" d="M597.5,112.3c0,3.4-0.9,6-2.8,7.8s-4.6,2.7-8.1,2.7h-5.7v-20.5h6.3c3.3,0,5.8,0.9,7.6,2.6
		C596.6,106.6,597.5,109.1,597.5,112.3z M594,112.4c0-4.9-2.3-7.4-6.9-7.4h-2.9v14.9h2.4C591.5,119.9,594,117.4,594,112.4L594,112.4
		z"/>
	<path class="st0" d="M609.2,123c-2.1,0.1-4.1-0.6-5.7-2.1c-1.4-1.6-2.1-3.7-2-5.8c-0.1-2.2,0.5-4.3,1.9-6c1.3-1.5,3.2-2.3,5.2-2.2
		c1.8-0.1,3.6,0.6,4.8,1.9c1.2,1.4,1.9,3.3,1.8,5.1v1.8h-10.4c0,1.3,0.4,2.5,1.2,3.5c0.9,0.8,2,1.3,3.2,1.2c0.9,0,1.7-0.1,2.6-0.3
		c0.9-0.2,1.7-0.5,2.5-0.9v2.7c-0.8,0.4-1.6,0.6-2.4,0.8C611.1,122.9,610.2,123,609.2,123z M608.6,109.4c-0.9,0-1.9,0.3-2.5,1
		c-0.7,0.8-1.1,1.8-1.1,2.9h7c0.1-1.1-0.3-2.1-0.9-2.9C610.4,109.8,609.5,109.4,608.6,109.4L608.6,109.4z"/>
	<path class="st0" d="M623.4,122.7l-5.9-15.5h3.5l3.2,9c0.5,1.2,0.8,2.4,1,3.7h0.1c0.2-1.2,0.6-2.5,1-3.7l3.2-9h3.5l-5.9,15.5H623.4
		z"/>
	<path class="st0" d="M642.9,123c-2.1,0.1-4.2-0.6-5.7-2.1c-1.4-1.6-2.1-3.7-2-5.8c-0.1-2.2,0.5-4.3,1.9-6c1.3-1.5,3.2-2.3,5.2-2.2
		c1.8-0.1,3.6,0.6,4.9,1.9c1.2,1.4,1.9,3.3,1.8,5.1v1.8h-10.4c0,1.3,0.4,2.5,1.2,3.5c0.9,0.8,2,1.3,3.2,1.2c0.9,0,1.7-0.1,2.6-0.3
		c0.9-0.2,1.7-0.5,2.5-0.9v2.7c-0.8,0.4-1.6,0.6-2.4,0.8C644.8,122.9,643.8,123,642.9,123z M642.3,109.4c-0.9,0-1.9,0.3-2.5,1
		c-0.7,0.8-1.1,1.8-1.1,2.9h7c0.1-1.1-0.3-2.1-0.9-2.9C644.1,109.8,643.2,109.4,642.3,109.4L642.3,109.4z"/>
	<path class="st0" d="M656.8,122.7h-3.3v-21.8h3.3V122.7z"/>
	<path class="st0" d="M676.1,114.9c0.1,2.2-0.6,4.3-2,5.9c-1.4,1.5-3.4,2.2-5.4,2.1c-1.4,0-2.7-0.3-3.8-1c-1.1-0.7-2-1.6-2.6-2.8
		c-0.6-1.3-0.9-2.8-0.9-4.3c-0.1-2.1,0.6-4.2,1.9-5.9c1.4-1.5,3.4-2.2,5.5-2.1c2-0.1,4,0.7,5.3,2.2
		C675.5,110.7,676.2,112.8,676.1,114.9z M664.8,114.9c0,3.6,1.3,5.4,4,5.4s3.9-1.8,3.9-5.4s-1.3-5.3-4-5.3c-1.2-0.1-2.3,0.4-3,1.4
		C665.1,112.2,664.7,113.6,664.8,114.9z"/>
	<path class="st0" d="M688.6,123c-1.8,0.1-3.5-0.7-4.6-2.1h-0.2c0.1,1.3,0.2,2.1,0.2,2.4v6.3h-3.3v-22.4h2.7c0.1,0.3,0.2,1,0.5,2.1
		h0.2c1-1.6,2.8-2.5,4.6-2.4c1.8-0.1,3.5,0.7,4.5,2.1c2.2,3.6,2.2,8.2,0,11.8C692.1,122.3,690.4,123.1,688.6,123z M687.8,109.6
		c-1.1-0.1-2.2,0.3-2.9,1.2c-0.7,1.1-1,2.4-0.9,3.7v0.5c-0.1,1.4,0.2,2.8,0.9,4.1c0.7,0.9,1.8,1.4,2.9,1.3c1.1,0,2.1-0.5,2.6-1.4
		c0.7-1.2,1-2.6,0.9-4c0.1-1.4-0.2-2.7-0.9-3.9C690,110,688.9,109.5,687.8,109.6L687.8,109.6z"/>
	<path class="st0" d="M706.3,123c-2.1,0.1-4.2-0.6-5.7-2.1c-1.4-1.6-2.1-3.7-2-5.8c-0.1-2.2,0.5-4.3,1.9-6c1.3-1.5,3.2-2.3,5.2-2.2
		c1.8-0.1,3.6,0.6,4.8,1.9c1.2,1.4,1.9,3.3,1.8,5.1v1.8H702c0,1.3,0.4,2.5,1.2,3.5c0.9,0.9,2,1.3,3.2,1.2c0.9,0,1.7-0.1,2.6-0.3
		c0.9-0.2,1.7-0.5,2.5-0.9v2.7c-0.8,0.4-1.6,0.6-2.4,0.8C708.2,122.9,707.2,123,706.3,123z M705.7,109.4c-0.9,0-1.9,0.3-2.5,1
		c-0.7,0.8-1.1,1.8-1.1,2.9h7c0.1-1-0.3-2.1-0.9-2.9C707.5,109.8,706.6,109.4,705.7,109.4L705.7,109.4z"/>
	<path class="st0" d="M724.8,106.9c0.5,0,1.1,0,1.6,0.1l-0.3,3.1c-0.5-0.1-1-0.2-1.5-0.2c-1.2,0-2.4,0.4-3.2,1.3
		c-0.8,0.9-1.3,2.1-1.2,3.4v8.1h-3.3v-15.5h2.6l0.4,2.7h0.2c0.5-0.9,1.2-1.6,2-2.2C722.9,107.2,723.9,106.9,724.8,106.9z"/>
	<path class="st0" d="M148.9,50.1C129.7,11.9,83.1-3.5,44.9,15.8S-8.7,81.6,10.5,119.9s65.8,53.6,104.1,34.3c0,0,0,0,0,0
		C152.8,134.9,168.2,88.3,148.9,50.1z M87.4,140.1c-10.5,2.8-18.9-5-18.9-5c-2.4-0.2-4.6-0.9-6.8-1.8c0.6-1.8,7.3-2.6,8.1-2.5
		s0.4,1.9,0.4,1.9c10.7,9.2,23.1,3.8,23.1,3.8S94.5,138.2,87.4,140.1L87.4,140.1z M108.7,116.3c-1.7,1.5-4.6,2.3-8,2.3l0,0
		c-3.9,0-7.5-1.2-9.6-3.1c-1.2-1.3-2.1-2.9-2.6-4.6c-2-0.6-4.2-0.1-5.8,1.2c0.1,1.9-0.3,3.9-1.3,5.6c-3,4.4-11.6,7.2-16.4,7.2
		c-1.2,0-2.3-0.2-3.4-0.6c-3.3-1.4-5.2-4.9-6.3-8.3c-2.9-0.3-5.8-0.5-8.5-0.6c1.1,3.2,1.6,5.8,1.3,7.6c-0.4,2.6-1.3,3.1-1.3,3.1
		c-1.6-4.4-2.3-6.9-3.9-10.8c-3.2,0-5.5,0.2-6.1,0.8c-0.9,0.4-1.9,0.4-2.9,0.1c-0.7-0.7,0.3-4.4,1-5.1c1.1-1.1,2.7-0.9,11.7-0.7
		c2.9,0.1,5.7,0.3,7.4,0.4c-0.2-1.1-0.3-2.3-0.3-3.5c0-0.7,0.3-1.3,0.9-1.6c7-4.3,16.2-4.9,21.1-4.9c2.4,0,3.9,0.1,4,0.2
		c0.8,0.1,1.5,0.6,1.7,1.4c0.2,0.7,0.5,2.2,0.8,4.2c1.5-0.7,3.2-1,4.9-0.9c-0.3-1.6-0.5-2.9-0.6-3.5c-0.1-0.8,0.3-1.5,1-1.9
		c5-2.5,10.5-3.7,16.1-3.7c2,0,4,0.2,6,0.5c0.7,0.1,1.3,0.6,1.5,1.3C111.3,99.1,114.7,111,108.7,116.3L108.7,116.3z M53.3,89.1
		c8.6-7.1,21.1-3.3,21.1-3.3c1.3,1.9,2,4.2,2,6.6c-16.5-8.1-23,1.1-23,1.1C52.8,92,52.8,90.5,53.3,89.1z M88.5,84.8
		c5.3,6.7,18.5,2.4,18.5,2.4c0.6,1.8,0,2.6,0,2.6c-5.2,3.8-14.7,3.2-17.1,2.3C88,90.2,88.5,84.8,88.5,84.8z M107.5,76.6
		c-18.3-6.1-59.8,2.2-59.8,2.2c-1.9,5.3-3.2,10.8-4,16.4c0.2,1.5,0.2,9.2,0.7,11.8h-3.6c-3.6-8.4-6-22.6-6-24.2
		c0-2.8,4.8-6.5,4.8-6.5c-1.1-3-1.1-6.3,0-9.3c1.1-2.7,5.6-4.7,11.4-6.2c8-6.8,15.2-14.5,17.1-18.9c0.3-0.8,1.3-2.6,2.9-1.5
		c3.2,2.1,3.1,7.6,3.1,7.6c12-6.2,14.7-13.3,15.3-16.8c0.4-1.3,1.6-2.1,2.9-1.9c11.3,2.8,14.4,18.9,6.5,24.1c7.9-1,11-4.6,12.9-7.5
		c0.8-0.7,1.9-0.7,2.7,0c2,3.3,1.8,8.5-0.9,13.7h2.6l12.2,0.5C125.8,70.2,107.5,76.6,107.5,76.6L107.5,76.6z"/>
</g>
</svg>
